<?xml version="1.0" encoding="utf-8"?>
<!-- Generator: Adobe Illustrator 21.1.0, SVG Export Plug-In . SVG Version: 6.00 Build 0)  -->
<svg version="1.1" id="Layer_1" xmlns="http://www.w3.org/2000/svg" xmlns:xlink="http://www.w3.org/1999/xlink" x="0px" y="0px"
	 viewBox="0 0 850.4 173.9" style="enable-background:new 0 0 850.4 173.9;" xml:space="preserve">
<style type="text/css">
	.st0{enable-background:new    ;}
	.st1{clip-path:url(#SVGID_2_);fill:#A0C7D8;}
	.st2{fill:#FFFFFF;}
	.st3{clip-path:url(#SVGID_4_);fill:#15314B;}
	.st4{fill:#15314B;}
	.st5{clip-path:url(#SVGID_6_);}
	.st6{font-family:'ArialMT';}
	.st7{font-size:46px;}
</style>
<g class="st0">
	<g>
		<defs>
			<rect id="SVGID_1_" width="173.1" height="173.1"/>
		</defs>
		<clipPath id="SVGID_2_">
			<use xlink:href="#SVGID_1_"  style="overflow:visible;"/>
		</clipPath>
		<path class="st1" d="M158.9,173.1H14.2c-7.8,0-14.2-6.4-14.2-14.2V14.2C0,6.4,6.4,0,14.2,0h144.7c7.8,0,14.2,6.4,14.2,14.2v144.7
			C173.1,166.8,166.8,173.1,158.9,173.1"/>
	</g>
</g>
<g id="Page-1">
	<g id="NRRD-workmark">
		<path id="Fill-1" class="st2" d="M202.4,24.8c0.9,0,1.8-0.2,2.5-0.5c0.7-0.3,1.4-0.8,1.9-1.3c0.5-0.6,0.9-1.3,1.2-2
			c0.3-0.8,0.4-1.7,0.4-2.6V4.5h3.1v13.8c0,1.3-0.2,2.5-0.6,3.6c-0.4,1.1-1,2.1-1.8,2.9c-0.8,0.8-1.7,1.5-2.8,1.9
			c-1.1,0.5-2.4,0.7-3.8,0.7c-1.4,0-2.7-0.2-3.8-0.7c-1.1-0.5-2.1-1.1-2.9-1.9c-0.8-0.8-1.4-1.8-1.8-2.9c-0.4-1.1-0.6-2.3-0.6-3.6
			V4.5h3.1v13.8c0,0.9,0.1,1.8,0.4,2.6c0.3,0.8,0.7,1.5,1.2,2c0.5,0.6,1.1,1,1.9,1.3C200.6,24.6,201.5,24.8,202.4,24.8"/>
		<path id="Fill-4" class="st2" d="M214.6,25.5c0-0.3,0-0.5,0.2-0.8c0.1-0.2,0.2-0.5,0.4-0.6c0.2-0.2,0.4-0.3,0.6-0.4
			c0.2-0.1,0.5-0.2,0.8-0.2s0.5,0.1,0.8,0.2c0.2,0.1,0.5,0.2,0.6,0.4s0.3,0.4,0.4,0.6c0.1,0.2,0.2,0.5,0.2,0.8
			c0,0.3-0.1,0.5-0.2,0.8c-0.1,0.2-0.2,0.4-0.4,0.6c-0.2,0.2-0.4,0.3-0.6,0.4s-0.5,0.2-0.8,0.2s-0.5,0-0.8-0.2s-0.5-0.2-0.6-0.4
			c-0.2-0.2-0.3-0.4-0.4-0.6C214.6,26,214.6,25.8,214.6,25.5"/>
		<path id="Fill-6" class="st2" d="M234.3,8.1c-0.1,0.2-0.2,0.3-0.3,0.4c-0.1,0.1-0.2,0.1-0.4,0.1c-0.2,0-0.4-0.1-0.6-0.3
			c-0.2-0.2-0.5-0.4-0.9-0.6c-0.4-0.2-0.8-0.4-1.3-0.6c-0.5-0.2-1.1-0.3-1.9-0.3c-0.7,0-1.3,0.1-1.8,0.3c-0.5,0.2-1,0.4-1.3,0.8
			c-0.4,0.3-0.6,0.7-0.8,1.1c-0.2,0.4-0.3,0.9-0.3,1.4c0,0.6,0.2,1.2,0.5,1.6c0.3,0.4,0.7,0.8,1.2,1.1c0.5,0.3,1.1,0.6,1.7,0.8
			c0.6,0.2,1.3,0.4,2,0.7c0.7,0.2,1.3,0.5,2,0.8c0.6,0.3,1.2,0.7,1.7,1.1c0.5,0.4,0.9,1,1.2,1.6c0.3,0.6,0.5,1.4,0.5,2.4
			c0,1-0.2,1.9-0.5,2.8c-0.3,0.9-0.8,1.6-1.5,2.3c-0.6,0.6-1.4,1.2-2.4,1.5c-0.9,0.4-2,0.6-3.2,0.6c-1.5,0-2.8-0.3-4-0.8
			c-1.2-0.5-2.2-1.3-3.1-2.2l0.9-1.5c0.1-0.1,0.2-0.2,0.3-0.3c0.1-0.1,0.3-0.1,0.4-0.1c0.2,0,0.5,0.1,0.8,0.4
			c0.3,0.2,0.6,0.5,1.1,0.8c0.4,0.3,0.9,0.5,1.6,0.8c0.6,0.2,1.3,0.4,2.2,0.4c0.7,0,1.4-0.1,1.9-0.3c0.6-0.2,1.1-0.5,1.4-0.8
			c0.4-0.4,0.7-0.8,0.9-1.3c0.2-0.5,0.3-1.1,0.3-1.7c0-0.7-0.2-1.2-0.5-1.7c-0.3-0.4-0.7-0.8-1.2-1.1c-0.5-0.3-1.1-0.5-1.7-0.8
			c-0.6-0.2-1.3-0.4-2-0.6c-0.7-0.2-1.3-0.5-2-0.8c-0.6-0.3-1.2-0.7-1.7-1.1c-0.5-0.5-0.9-1-1.2-1.7c-0.3-0.7-0.5-1.5-0.5-2.5
			c0-0.8,0.2-1.6,0.5-2.3c0.3-0.7,0.8-1.4,1.4-2c0.6-0.6,1.3-1,2.2-1.4c0.9-0.3,1.9-0.5,3-0.5c1.3,0,2.4,0.2,3.5,0.6
			c1,0.4,2,1,2.7,1.7L234.3,8.1z"/>
		<path id="Fill-8" class="st2" d="M238.1,25.5c0-0.3,0-0.5,0.2-0.8c0.1-0.2,0.2-0.5,0.4-0.6c0.2-0.2,0.4-0.3,0.6-0.4
			c0.2-0.1,0.5-0.2,0.8-0.2c0.3,0,0.5,0.1,0.8,0.2c0.2,0.1,0.5,0.2,0.6,0.4c0.2,0.2,0.3,0.4,0.4,0.6c0.1,0.2,0.2,0.5,0.2,0.8
			c0,0.3-0.1,0.5-0.2,0.8c-0.1,0.2-0.2,0.4-0.4,0.6c-0.2,0.2-0.4,0.3-0.6,0.4s-0.5,0.2-0.8,0.2c-0.3,0-0.5,0-0.8-0.2
			s-0.5-0.2-0.6-0.4c-0.2-0.2-0.3-0.4-0.4-0.6C238.1,26,238.1,25.8,238.1,25.5"/>
		<path id="Fill-10" class="st2" d="M268.8,15.9c0-1.4-0.2-2.6-0.6-3.7c-0.4-1.1-0.9-2-1.6-2.8c-0.7-0.8-1.5-1.3-2.5-1.7
			c-1-0.4-2.1-0.6-3.3-0.6h-5.4v17.7h5.4c1.2,0,2.3-0.2,3.3-0.6c1-0.4,1.8-1,2.5-1.7s1.2-1.7,1.6-2.8
			C268.6,18.5,268.8,17.3,268.8,15.9 M271.9,15.9c0,1.7-0.3,3.2-0.8,4.6c-0.5,1.4-1.3,2.6-2.3,3.6c-1,1-2.2,1.8-3.5,2.3
			c-1.4,0.5-2.9,0.8-4.6,0.8h-8.5V4.6h8.5c1.7,0,3.2,0.3,4.6,0.8c1.4,0.5,2.6,1.3,3.5,2.3c1,1,1.7,2.2,2.3,3.6
			C271.7,12.7,271.9,14.2,271.9,15.9"/>
		<path id="Fill-12" class="st2" d="M282.1,13c-1.4,0-2.4,0.4-3.2,1.2c-0.8,0.8-1.3,1.9-1.5,3.3h8.7c0-0.7-0.1-1.3-0.3-1.8
			c-0.2-0.5-0.4-1-0.8-1.4c-0.3-0.4-0.8-0.7-1.3-0.9S282.7,13,282.1,13 M282,10.9c1,0,1.8,0.2,2.7,0.5c0.8,0.3,1.5,0.8,2.1,1.4
			c0.6,0.6,1.1,1.4,1.4,2.2c0.3,0.9,0.5,1.9,0.5,3c0,0.4,0,0.7-0.1,0.9c-0.1,0.1-0.3,0.2-0.5,0.2h-10.7c0,1,0.2,1.9,0.4,2.6
			c0.3,0.8,0.6,1.4,1,1.9c0.4,0.5,1,0.9,1.6,1.1c0.6,0.2,1.3,0.4,2.1,0.4c0.7,0,1.3-0.1,1.8-0.2c0.5-0.2,1-0.3,1.3-0.5
			c0.4-0.2,0.7-0.4,0.9-0.5c0.2-0.2,0.5-0.2,0.6-0.2c0.2,0,0.4,0.1,0.5,0.3l0.8,1c-0.3,0.4-0.8,0.8-1.3,1.1c-0.5,0.3-1,0.6-1.6,0.8
			c-0.6,0.2-1.1,0.3-1.7,0.5c-0.6,0.1-1.2,0.2-1.8,0.2c-1.1,0-2.1-0.2-3.1-0.6c-0.9-0.4-1.7-0.9-2.4-1.6c-0.7-0.7-1.2-1.6-1.6-2.7
			c-0.4-1.1-0.6-2.3-0.6-3.7c0-1.1,0.2-2.2,0.5-3.1c0.3-1,0.8-1.8,1.5-2.5c0.6-0.7,1.4-1.3,2.4-1.7C279.8,11.2,280.9,10.9,282,10.9"
			/>
		<path id="Fill-14" class="st2" d="M299.4,13.2c-0.9,0-1.7,0.2-2.4,0.6s-1.3,1-1.9,1.8v7.8c0.5,0.7,1.1,1.2,1.7,1.5
			c0.6,0.3,1.3,0.4,2.1,0.4c1.5,0,2.6-0.5,3.4-1.6c0.8-1.1,1.2-2.6,1.2-4.6c0-1-0.1-1.9-0.3-2.7c-0.2-0.8-0.5-1.4-0.8-1.8
			c-0.3-0.5-0.8-0.8-1.3-1.1C300.6,13.3,300.1,13.2,299.4,13.2L299.4,13.2z M292.3,32.7V11.2h1.7c0.4,0,0.7,0.2,0.8,0.6l0.2,1.9
			c0.7-0.8,1.5-1.5,2.4-2c0.9-0.5,1.9-0.8,3-0.8c0.9,0,1.8,0.2,2.5,0.5c0.7,0.4,1.4,0.9,1.9,1.6c0.5,0.7,0.9,1.6,1.2,2.6
			c0.3,1,0.4,2.2,0.4,3.5c0,1.2-0.2,2.3-0.5,3.3c-0.3,1-0.8,1.9-1.4,2.6c-0.6,0.7-1.3,1.3-2.2,1.8c-0.9,0.4-1.8,0.6-2.9,0.6
			c-1,0-1.8-0.2-2.5-0.5c-0.7-0.3-1.3-0.8-1.9-1.4v7.1H292.3z"/>
		<path id="Fill-16" class="st2" d="M314.2,25.5c0.5,0,1,0,1.4-0.2c0.4-0.1,0.8-0.2,1.2-0.4c0.4-0.2,0.7-0.4,1-0.7
			c0.3-0.3,0.7-0.6,1-0.9v-3.3c-1.3,0-2.4,0.1-3.3,0.2c-0.9,0.2-1.6,0.4-2.2,0.6c-0.6,0.3-1,0.6-1.2,0.9c-0.3,0.4-0.4,0.8-0.4,1.2
			c0,0.4,0.1,0.8,0.2,1.1c0.1,0.3,0.3,0.6,0.6,0.8c0.2,0.2,0.5,0.3,0.8,0.4C313.5,25.5,313.8,25.5,314.2,25.5L314.2,25.5z
			 M321.5,27.2h-1.3c-0.3,0-0.5,0-0.7-0.1c-0.2-0.1-0.3-0.3-0.3-0.5l-0.3-1.5c-0.4,0.4-0.8,0.7-1.2,1c-0.4,0.3-0.8,0.6-1.3,0.8
			c-0.4,0.2-0.9,0.4-1.4,0.5c-0.5,0.1-1.1,0.2-1.7,0.2c-0.6,0-1.2-0.1-1.8-0.3c-0.5-0.2-1-0.4-1.4-0.8c-0.4-0.3-0.7-0.8-1-1.3
			c-0.2-0.5-0.4-1.2-0.4-1.9c0-0.6,0.2-1.2,0.5-1.8c0.3-0.6,0.9-1.1,1.7-1.6c0.8-0.5,1.8-0.8,3-1.1c1.3-0.3,2.8-0.4,4.6-0.4V17
			c0-1.3-0.3-2.2-0.8-2.8c-0.5-0.6-1.3-1-2.4-1c-0.7,0-1.3,0.1-1.7,0.3c-0.5,0.2-0.9,0.4-1.2,0.6c-0.3,0.2-0.6,0.4-0.9,0.6
			c-0.2,0.2-0.5,0.3-0.7,0.3c-0.2,0-0.4,0-0.5-0.2c-0.1-0.1-0.3-0.2-0.3-0.4l-0.5-0.9c0.9-0.9,1.8-1.5,2.9-1.9
			c1-0.4,2.2-0.6,3.4-0.6c0.9,0,1.7,0.1,2.4,0.4c0.7,0.3,1.3,0.7,1.8,1.2c0.5,0.5,0.8,1.2,1.1,1.9c0.2,0.8,0.4,1.6,0.4,2.5V27.2z"/>
		<path id="Fill-18" class="st2" d="M325.8,27.2v-16h1.6c0.3,0,0.5,0.1,0.6,0.2c0.1,0.1,0.2,0.3,0.2,0.6l0.2,2.5
			c0.5-1.1,1.2-2,2-2.6c0.8-0.6,1.8-0.9,2.8-0.9c0.4,0,0.8,0,1.2,0.2c0.4,0.1,0.7,0.2,1,0.4l-0.4,2.1c-0.1,0.3-0.2,0.4-0.5,0.4
			c-0.1,0-0.4,0-0.7-0.2c-0.3-0.1-0.7-0.1-1.3-0.1c-1,0-1.8,0.3-2.5,0.9c-0.7,0.6-1.2,1.4-1.7,2.5v10.2H325.8z"/>
		<path id="Fill-20" class="st2" d="M343.4,27.5c-1.3,0-2.2-0.4-2.9-1.1c-0.7-0.7-1-1.7-1-3.1v-9.8h-1.9c-0.2,0-0.3,0-0.4-0.2
			c-0.1-0.1-0.2-0.3-0.2-0.5v-1.1l2.6-0.3l0.6-5c0-0.2,0.1-0.3,0.2-0.4c0.1-0.1,0.3-0.1,0.4-0.1h1.4v5.5h4.6v2h-4.6v9.6
			c0,0.7,0.2,1.2,0.5,1.5c0.3,0.3,0.7,0.5,1.3,0.5c0.3,0,0.6,0,0.8-0.1c0.2-0.1,0.4-0.2,0.6-0.3c0.2-0.1,0.3-0.2,0.4-0.3
			c0.1-0.1,0.2-0.1,0.3-0.1c0.1,0,0.3,0.1,0.4,0.3l0.8,1.3c-0.5,0.5-1.1,0.8-1.8,1.1C344.9,27.4,344.2,27.5,343.4,27.5"/>
		<path id="Fill-22" class="st2" d="M350.4,27.2v-16h1.7c0.4,0,0.7,0.2,0.8,0.6l0.2,1.6c0.6-0.7,1.3-1.3,2-1.8
			c0.7-0.5,1.6-0.7,2.6-0.7c1.1,0,2,0.3,2.6,0.9c0.7,0.6,1.2,1.4,1.4,2.4c0.2-0.6,0.5-1.1,0.9-1.5c0.4-0.4,0.8-0.8,1.2-1
			c0.5-0.3,0.9-0.5,1.4-0.6c0.5-0.1,1-0.2,1.6-0.2c0.8,0,1.6,0.1,2.3,0.4c0.7,0.3,1.2,0.7,1.7,1.2c0.5,0.5,0.8,1.2,1.1,1.9
			c0.2,0.8,0.4,1.6,0.4,2.6v10.2h-2.8V17c0-1.3-0.3-2.2-0.8-2.9c-0.5-0.6-1.3-1-2.4-1c-0.5,0-0.9,0.1-1.3,0.2
			c-0.4,0.2-0.8,0.4-1.1,0.7c-0.3,0.3-0.6,0.7-0.8,1.2c-0.2,0.5-0.3,1-0.3,1.7v10.2h-2.8V17c0-1.3-0.3-2.2-0.8-2.9
			c-0.5-0.6-1.3-0.9-2.3-0.9c-0.7,0-1.3,0.2-1.9,0.6c-0.6,0.4-1.1,0.9-1.6,1.5v12H350.4z"/>
		<path id="Fill-24" class="st2" d="M382.8,13c-1.4,0-2.4,0.4-3.2,1.2c-0.8,0.8-1.3,1.9-1.5,3.3h8.7c0-0.7-0.1-1.3-0.3-1.8
			c-0.2-0.5-0.4-1-0.8-1.4c-0.3-0.4-0.8-0.7-1.3-0.9S383.4,13,382.8,13 M382.7,10.9c1,0,1.8,0.2,2.7,0.5c0.8,0.3,1.5,0.8,2.1,1.4
			c0.6,0.6,1.1,1.4,1.4,2.2c0.3,0.9,0.5,1.9,0.5,3c0,0.4,0,0.7-0.1,0.9c-0.1,0.1-0.3,0.2-0.5,0.2H378c0,1,0.2,1.9,0.4,2.6
			c0.3,0.8,0.6,1.4,1,1.9c0.4,0.5,1,0.9,1.6,1.1c0.6,0.2,1.3,0.4,2.1,0.4c0.7,0,1.3-0.1,1.8-0.2c0.5-0.2,1-0.3,1.3-0.5
			c0.4-0.2,0.7-0.4,0.9-0.5c0.2-0.2,0.5-0.2,0.6-0.2c0.2,0,0.4,0.1,0.5,0.3l0.8,1c-0.3,0.4-0.8,0.8-1.3,1.1c-0.5,0.3-1,0.6-1.6,0.8
			c-0.6,0.2-1.1,0.3-1.7,0.5c-0.6,0.1-1.2,0.2-1.8,0.2c-1.1,0-2.1-0.2-3.1-0.6c-0.9-0.4-1.7-0.9-2.4-1.6c-0.7-0.7-1.2-1.6-1.6-2.7
			c-0.4-1.1-0.6-2.3-0.6-3.7c0-1.1,0.2-2.2,0.5-3.1c0.3-1,0.8-1.8,1.5-2.5c0.6-0.7,1.4-1.3,2.4-1.7
			C380.5,11.2,381.6,10.9,382.7,10.9"/>
		<path id="Fill-26" class="st2" d="M393,27.2v-16h1.7c0.4,0,0.7,0.2,0.8,0.6l0.2,1.7c0.7-0.8,1.5-1.4,2.3-1.9
			c0.9-0.5,1.9-0.7,3-0.7c0.9,0,1.7,0.1,2.3,0.4c0.7,0.3,1.2,0.7,1.7,1.2s0.8,1.2,1,1.9c0.2,0.8,0.3,1.6,0.3,2.5v10.2h-2.8V17
			c0-1.2-0.3-2.2-0.8-2.8c-0.6-0.7-1.4-1-2.5-1c-0.8,0-1.6,0.2-2.3,0.6c-0.7,0.4-1.4,0.9-2,1.6v11.8H393z"/>
		<path id="Fill-28" class="st2" d="M415.5,27.5c-1.3,0-2.2-0.4-2.9-1.1c-0.7-0.7-1-1.7-1-3.1v-9.8h-1.9c-0.2,0-0.3,0-0.4-0.2
			c-0.1-0.1-0.2-0.3-0.2-0.5v-1.1l2.6-0.3l0.6-5c0-0.2,0.1-0.3,0.2-0.4c0.1-0.1,0.3-0.1,0.4-0.1h1.4v5.5h4.6v2h-4.6v9.6
			c0,0.7,0.2,1.2,0.5,1.5c0.3,0.3,0.7,0.5,1.3,0.5c0.3,0,0.6,0,0.8-0.1c0.2-0.1,0.4-0.2,0.6-0.3c0.2-0.1,0.3-0.2,0.4-0.3
			c0.1-0.1,0.2-0.1,0.3-0.1c0.1,0,0.3,0.1,0.4,0.3l0.8,1.3c-0.5,0.5-1.1,0.8-1.8,1.1C416.9,27.4,416.2,27.5,415.5,27.5"/>
		<path id="Fill-30" class="st2" d="M435,25.3c1.6,0,2.8-0.5,3.5-1.6c0.8-1.1,1.2-2.5,1.2-4.4c0-1.9-0.4-3.4-1.2-4.5
			c-0.8-1.1-2-1.6-3.5-1.6c-0.8,0-1.5,0.1-2.1,0.4c-0.6,0.3-1.1,0.7-1.5,1.2s-0.7,1.2-0.9,1.9c-0.2,0.8-0.3,1.6-0.3,2.6
			c0,1,0.1,1.8,0.3,2.6c0.2,0.7,0.5,1.4,0.9,1.9s0.9,0.9,1.5,1.2C433.5,25.1,434.2,25.3,435,25.3 M435,10.9c1.2,0,2.2,0.2,3.2,0.6
			c0.9,0.4,1.7,0.9,2.4,1.7c0.7,0.7,1.2,1.6,1.5,2.6c0.4,1,0.5,2.2,0.5,3.4c0,1.3-0.2,2.4-0.5,3.4c-0.4,1-0.9,1.9-1.5,2.6
			c-0.7,0.7-1.5,1.3-2.4,1.7c-0.9,0.4-2,0.6-3.2,0.6c-1.2,0-2.2-0.2-3.2-0.6c-0.9-0.4-1.8-0.9-2.4-1.7c-0.7-0.7-1.2-1.6-1.5-2.6
			c-0.4-1-0.5-2.2-0.5-3.4c0-1.3,0.2-2.4,0.5-3.4c0.4-1,0.9-1.9,1.5-2.6c0.7-0.7,1.5-1.3,2.4-1.7C432.8,11.1,433.8,10.9,435,10.9"/>
		<path id="Fill-32" class="st2" d="M446.8,27.2V13.6l-1.8-0.2c-0.2-0.1-0.4-0.1-0.5-0.2c-0.1-0.1-0.2-0.3-0.2-0.5v-1.2h2.5V10
			c0-0.9,0.1-1.7,0.4-2.4c0.3-0.7,0.6-1.3,1.1-1.8c0.5-0.5,1.1-0.9,1.7-1.1c0.7-0.3,1.4-0.4,2.3-0.4c0.7,0,1.4,0.1,2,0.3l-0.1,1.4
			c0,0.2-0.1,0.3-0.3,0.4c-0.2,0-0.4,0.1-0.7,0.1h-0.5c-0.5,0-0.9,0.1-1.3,0.2c-0.4,0.1-0.7,0.3-1,0.6c-0.3,0.3-0.5,0.7-0.7,1.1
			c-0.2,0.5-0.2,1-0.2,1.7v1.5h4.6v2h-4.5v13.7H446.8z"/>
		<path id="Fill-34" class="st2" d="M467.8,27.5c-1.3,0-2.2-0.4-2.9-1.1c-0.7-0.7-1-1.7-1-3.1v-9.8h-1.9c-0.2,0-0.3,0-0.4-0.2
			c-0.1-0.1-0.2-0.3-0.2-0.5v-1.1l2.6-0.3l0.6-5c0-0.2,0.1-0.3,0.2-0.4c0.1-0.1,0.3-0.1,0.4-0.1h1.4v5.5h4.6v2h-4.6v9.6
			c0,0.7,0.2,1.2,0.5,1.5c0.3,0.3,0.7,0.5,1.3,0.5c0.3,0,0.6,0,0.8-0.1c0.2-0.1,0.4-0.2,0.6-0.3c0.2-0.1,0.3-0.2,0.4-0.3
			c0.1-0.1,0.2-0.1,0.3-0.1c0.1,0,0.3,0.1,0.4,0.3l0.8,1.3c-0.5,0.5-1.1,0.8-1.8,1.1C469.2,27.4,468.5,27.5,467.8,27.5"/>
		<path id="Fill-36" class="st2" d="M474.7,27.2V3.9h2.8v9.4c0.7-0.7,1.4-1.3,2.3-1.8c0.8-0.4,1.8-0.7,2.9-0.7
			c0.9,0,1.7,0.1,2.3,0.4c0.7,0.3,1.2,0.7,1.7,1.2c0.4,0.5,0.8,1.2,1,1.9c0.2,0.8,0.3,1.6,0.3,2.5v10.2h-2.8V17
			c0-1.2-0.3-2.2-0.8-2.8c-0.6-0.7-1.4-1-2.5-1c-0.8,0-1.6,0.2-2.3,0.6c-0.7,0.4-1.4,0.9-2,1.6v11.8H474.7z"/>
		<path id="Fill-38" class="st2" d="M498.8,13c-1.4,0-2.4,0.4-3.2,1.2c-0.8,0.8-1.3,1.9-1.5,3.3h8.7c0-0.7-0.1-1.3-0.3-1.8
			c-0.2-0.5-0.4-1-0.8-1.4c-0.3-0.4-0.8-0.7-1.3-0.9S499.4,13,498.8,13 M498.7,10.9c1,0,1.8,0.2,2.7,0.5c0.8,0.3,1.5,0.8,2.1,1.4
			s1.1,1.4,1.4,2.2c0.3,0.9,0.5,1.9,0.5,3c0,0.4,0,0.7-0.1,0.9c-0.1,0.1-0.3,0.2-0.5,0.2H494c0,1,0.2,1.9,0.4,2.6
			c0.3,0.8,0.6,1.4,1,1.9c0.4,0.5,1,0.9,1.6,1.1c0.6,0.2,1.3,0.4,2.1,0.4c0.7,0,1.3-0.1,1.8-0.2c0.5-0.2,1-0.3,1.3-0.5
			c0.4-0.2,0.7-0.4,0.9-0.5c0.2-0.2,0.5-0.2,0.6-0.2c0.2,0,0.4,0.1,0.5,0.3l0.8,1c-0.3,0.4-0.8,0.8-1.3,1.1c-0.5,0.3-1,0.6-1.6,0.8
			c-0.6,0.2-1.1,0.3-1.7,0.5c-0.6,0.1-1.2,0.2-1.8,0.2c-1.1,0-2.1-0.2-3.1-0.6c-0.9-0.4-1.7-0.9-2.4-1.6c-0.7-0.7-1.2-1.6-1.6-2.7
			c-0.4-1.1-0.6-2.3-0.6-3.7c0-1.1,0.2-2.2,0.5-3.1c0.3-1,0.8-1.8,1.5-2.5c0.6-0.7,1.4-1.3,2.4-1.7
			C496.5,11.2,497.5,10.9,498.7,10.9"/>
		<polygon id="Fill-40" class="st2" points="516.1,27.2 519.1,27.2 519.1,4.5 516.1,4.5 		"/>
		<path id="Fill-42" class="st2" d="M524.8,27.2v-16h1.7c0.4,0,0.7,0.2,0.8,0.6l0.2,1.7c0.7-0.8,1.5-1.4,2.3-1.9
			c0.9-0.5,1.9-0.7,3-0.7c0.9,0,1.7,0.1,2.3,0.4c0.7,0.3,1.2,0.7,1.7,1.2c0.4,0.5,0.8,1.2,1,1.9c0.2,0.8,0.3,1.6,0.3,2.5v10.2h-2.8
			V17c0-1.2-0.3-2.2-0.8-2.8c-0.6-0.7-1.4-1-2.5-1c-0.8,0-1.6,0.2-2.3,0.6c-0.7,0.4-1.4,0.9-2,1.6v11.8H524.8z"/>
		<path id="Fill-43" class="st2" d="M547.3,27.5c-1.3,0-2.2-0.4-2.9-1.1c-0.7-0.7-1-1.7-1-3.1v-9.8h-1.9c-0.2,0-0.3,0-0.4-0.2
			c-0.1-0.1-0.2-0.3-0.2-0.5v-1.1l2.6-0.3l0.6-5c0-0.2,0.1-0.3,0.2-0.4c0.1-0.1,0.3-0.1,0.4-0.1h1.4v5.5h4.6v2h-4.6v9.6
			c0,0.7,0.2,1.2,0.5,1.5c0.3,0.3,0.7,0.5,1.3,0.5c0.3,0,0.6,0,0.8-0.1c0.2-0.1,0.4-0.2,0.6-0.3c0.2-0.1,0.3-0.2,0.4-0.3
			c0.1-0.1,0.2-0.1,0.3-0.1c0.1,0,0.3,0.1,0.4,0.3l0.8,1.3c-0.5,0.5-1.1,0.8-1.8,1.1C548.7,27.4,548,27.5,547.3,27.5"/>
		<path id="Fill-44" class="st2" d="M560.6,13c-1.4,0-2.4,0.4-3.2,1.2c-0.8,0.8-1.3,1.9-1.5,3.3h8.7c0-0.7-0.1-1.3-0.3-1.8
			c-0.2-0.5-0.4-1-0.8-1.4c-0.3-0.4-0.8-0.7-1.3-0.9S561.3,13,560.6,13 M560.6,10.9c1,0,1.8,0.2,2.7,0.5c0.8,0.3,1.5,0.8,2.1,1.4
			c0.6,0.6,1.1,1.4,1.4,2.2c0.3,0.9,0.5,1.9,0.5,3c0,0.4,0,0.7-0.1,0.9c-0.1,0.1-0.3,0.2-0.5,0.2h-10.7c0,1,0.2,1.9,0.4,2.6
			c0.3,0.8,0.6,1.4,1,1.9c0.4,0.5,1,0.9,1.6,1.1c0.6,0.2,1.3,0.4,2.1,0.4c0.7,0,1.3-0.1,1.8-0.2c0.5-0.2,1-0.3,1.3-0.5
			c0.4-0.2,0.7-0.4,0.9-0.5c0.2-0.2,0.5-0.2,0.6-0.2c0.2,0,0.4,0.1,0.5,0.3l0.8,1c-0.3,0.4-0.8,0.8-1.3,1.1c-0.5,0.3-1,0.6-1.6,0.8
			c-0.6,0.2-1.1,0.3-1.7,0.5c-0.6,0.1-1.2,0.2-1.8,0.2c-1.1,0-2.1-0.2-3.1-0.6c-0.9-0.4-1.7-0.9-2.4-1.6c-0.7-0.7-1.2-1.6-1.6-2.7
			c-0.4-1.1-0.6-2.3-0.6-3.7c0-1.1,0.2-2.2,0.5-3.1c0.3-1,0.8-1.8,1.5-2.5c0.6-0.7,1.4-1.3,2.4-1.7
			C558.3,11.2,559.4,10.9,560.6,10.9"/>
		<path id="Fill-45" class="st2" d="M570.8,27.2v-16h1.6c0.3,0,0.5,0.1,0.6,0.2c0.1,0.1,0.2,0.3,0.2,0.6l0.2,2.5
			c0.5-1.1,1.2-2,2-2.6c0.8-0.6,1.8-0.9,2.8-0.9c0.4,0,0.8,0,1.2,0.2c0.4,0.1,0.7,0.2,1,0.4l-0.4,2.1c-0.1,0.3-0.2,0.4-0.5,0.4
			c-0.1,0-0.4,0-0.7-0.2c-0.3-0.1-0.7-0.1-1.3-0.1c-1,0-1.8,0.3-2.5,0.9c-0.7,0.6-1.2,1.4-1.7,2.5v10.2H570.8z"/>
		<path id="Fill-46" class="st2" d="M583.9,27.2h2.8v-16h-2.8V27.2z M587.3,6.2c0,0.3-0.1,0.5-0.2,0.8c-0.1,0.2-0.3,0.4-0.4,0.6
			c-0.2,0.2-0.4,0.3-0.6,0.4c-0.2,0.1-0.5,0.2-0.8,0.2c-0.3,0-0.5-0.1-0.8-0.2c-0.2-0.1-0.5-0.3-0.6-0.4c-0.2-0.2-0.3-0.4-0.4-0.6
			c-0.1-0.2-0.2-0.5-0.2-0.8c0-0.3,0.1-0.5,0.2-0.8c0.1-0.2,0.3-0.5,0.4-0.6c0.2-0.2,0.4-0.3,0.6-0.4c0.2-0.1,0.5-0.2,0.8-0.2
			c0.3,0,0.5,0.1,0.8,0.2c0.2,0.1,0.5,0.3,0.6,0.4c0.2,0.2,0.3,0.4,0.4,0.6C587.3,5.6,587.3,5.9,587.3,6.2L587.3,6.2z"/>
		<path id="Fill-47" class="st2" d="M598.2,25.3c1.6,0,2.8-0.5,3.5-1.6c0.8-1.1,1.2-2.5,1.2-4.4c0-1.9-0.4-3.4-1.2-4.5
			c-0.8-1.1-2-1.6-3.5-1.6c-0.8,0-1.5,0.1-2.1,0.4c-0.6,0.3-1.1,0.7-1.5,1.2s-0.7,1.2-0.9,1.9c-0.2,0.8-0.3,1.6-0.3,2.6
			c0,1,0.1,1.8,0.3,2.6c0.2,0.7,0.5,1.4,0.9,1.9s0.9,0.9,1.5,1.2C596.7,25.1,597.4,25.3,598.2,25.3 M598.2,10.9
			c1.2,0,2.2,0.2,3.2,0.6c0.9,0.4,1.7,0.9,2.4,1.7c0.7,0.7,1.2,1.6,1.5,2.6c0.4,1,0.5,2.2,0.5,3.4c0,1.3-0.2,2.4-0.5,3.4
			c-0.4,1-0.9,1.9-1.5,2.6c-0.7,0.7-1.5,1.3-2.4,1.7c-0.9,0.4-2,0.6-3.2,0.6c-1.2,0-2.2-0.2-3.2-0.6c-0.9-0.4-1.8-0.9-2.4-1.7
			c-0.7-0.7-1.2-1.6-1.5-2.6c-0.4-1-0.5-2.2-0.5-3.4c0-1.3,0.2-2.4,0.5-3.4c0.4-1,0.9-1.9,1.5-2.6c0.7-0.7,1.5-1.3,2.4-1.7
			C595.9,11.1,597,10.9,598.2,10.9"/>
		<path id="Fill-48" class="st2" d="M609.3,27.2v-16h1.6c0.3,0,0.5,0.1,0.6,0.2c0.1,0.1,0.2,0.3,0.2,0.6l0.2,2.5
			c0.5-1.1,1.2-2,2-2.6c0.8-0.6,1.8-0.9,2.8-0.9c0.4,0,0.8,0,1.2,0.2c0.4,0.1,0.7,0.2,1,0.4l-0.4,2.1c-0.1,0.3-0.2,0.4-0.5,0.4
			c-0.1,0-0.4,0-0.7-0.2c-0.3-0.1-0.7-0.1-1.3-0.1c-1,0-1.8,0.3-2.5,0.9c-0.7,0.6-1.2,1.4-1.7,2.5v10.2H609.3z"/>
		<polygon id="Fill-49" class="st2" points="227.5,98.3 208,75.7 208,98.3 194.3,98.3 194.3,51.8 207.3,51.8 226.8,74.7 226.8,51.8 
			240.5,51.8 240.5,98.3 		"/>
		<path id="Fill-50" class="st2" d="M262.5,84c-1.8,0.8-2.7,1.9-2.7,3.3c0,2.3,1.5,3.4,4.6,3.4c1.8,0,3.3-0.5,4.6-1.4
			c1.3-0.9,2-2.1,2-3.5v-3C267.2,82.8,264.4,83.2,262.5,84 M279.3,64.6c3.4,1.8,5.1,4.8,5.1,8.9v13.9c0,0.8,0.2,1.4,0.5,1.9
			c0.4,0.5,0.9,0.7,1.6,0.7h2.4v7.8c-0.1,0.1-0.5,0.2-1,0.4c-0.6,0.2-1.4,0.4-2.4,0.6c-1,0.2-2.2,0.3-3.6,0.3
			c-2.6,0-4.8-0.4-6.4-1.2c-1.7-0.8-2.8-1.9-3.5-3.3c-1.7,1.3-3.6,2.4-5.7,3.2c-2.1,0.8-4.6,1.2-7.4,1.2c-8.4,0-12.6-3.3-12.6-10
			c0-3.5,0.9-6.1,2.8-7.9c1.9-1.8,4.6-3.1,8.1-3.7c3.5-0.7,8.1-1,13.8-1v-1.8c0-1.4-0.5-2.5-1.5-3.2c-1-0.7-2.2-1.1-3.7-1.1
			c-1.4,0-2.6,0.2-3.6,0.7c-1,0.5-1.5,1.3-1.5,2.4v0.3h-13.2c0-0.2-0.1-0.5-0.1-0.9c0-3.4,1.6-6.1,4.8-8c3.2-2,7.8-3,13.8-3
			C271.5,61.8,275.9,62.7,279.3,64.6"/>
		<path id="Fill-51" class="st2" d="M315.2,62.6v9.1h-7.6v13.6c0,1.6,0.3,2.8,0.8,3.5c0.5,0.7,1.5,1.1,3,1.1h3.8v7.9
			c-1.1,0.4-2.5,0.7-4.2,0.9c-1.7,0.2-3.2,0.3-4.5,0.3c-4,0-7-0.7-9.2-2.2c-2.1-1.4-3.2-3.9-3.2-7.4V71.7h-5v-9.1h5.5l2.9-10.8h10
			v10.8H315.2z"/>
		<path id="Fill-52" class="st2" d="M346.1,98.3l-0.9-5.4c-1.4,1.9-3.2,3.5-5.5,4.6c-2.3,1.1-4.7,1.7-7.2,1.7
			c-4.1,0-7.2-1.1-9.3-3.4s-3.1-5.6-3.1-9.9V62.6h13.4v21.5c0,1.5,0.4,2.8,1.2,3.7c0.8,0.9,1.9,1.4,3.3,1.4c1.7,0,3-0.5,4.1-1.6
			c1-1.1,1.6-2.4,1.6-4V62.6h13.4v35.7H346.1z"/>
		<path id="Fill-53" class="st2" d="M388.1,62.1c0.8,0.2,1.2,0.4,1.2,0.4v11.3H385c-2.8,0-4.8,0.7-6,2.2c-1.2,1.4-1.9,3.6-1.9,6.4
			v15.9h-13.4V62.6h11l0.9,5.4c0.8-2.1,2.1-3.6,3.8-4.7c1.8-1.1,3.7-1.6,5.9-1.6C386.4,61.8,387.3,61.9,388.1,62.1"/>
		<path id="Fill-54" class="st2" d="M407,84c-1.8,0.8-2.7,1.9-2.7,3.3c0,2.3,1.5,3.4,4.6,3.4c1.8,0,3.3-0.5,4.6-1.4
			c1.3-0.9,2-2.1,2-3.5v-3C411.6,82.8,408.8,83.2,407,84 M423.8,64.6c3.4,1.8,5.1,4.8,5.1,8.9v13.9c0,0.8,0.2,1.4,0.5,1.9
			c0.4,0.5,0.9,0.7,1.6,0.7h2.4v7.8c-0.1,0.1-0.5,0.2-1,0.4c-0.6,0.2-1.4,0.4-2.4,0.6c-1,0.2-2.2,0.3-3.6,0.3
			c-2.6,0-4.8-0.4-6.4-1.2c-1.7-0.8-2.8-1.9-3.5-3.3c-1.7,1.3-3.6,2.4-5.7,3.2c-2.1,0.8-4.6,1.2-7.4,1.2c-8.4,0-12.6-3.3-12.6-10
			c0-3.5,0.9-6.1,2.8-7.9c1.9-1.8,4.6-3.1,8.1-3.7c3.5-0.7,8.1-1,13.8-1v-1.8c0-1.4-0.5-2.5-1.5-3.2c-1-0.7-2.2-1.1-3.7-1.1
			c-1.4,0-2.6,0.2-3.6,0.7c-1,0.5-1.5,1.3-1.5,2.4v0.3h-13.2c0-0.2-0.1-0.5-0.1-0.9c0-3.4,1.6-6.1,4.8-8c3.2-2,7.8-3,13.8-3
			C415.9,61.8,420.3,62.7,423.8,64.6"/>
		<polygon id="Fill-55" class="st2" points="437.3,98.3 450.7,98.3 450.7,49.3 437.3,49.3 		"/>
		<path id="Fill-56" class="st2" d="M508.4,63.6c-0.8-0.8-1.8-1.2-3-1.2h-9.8V71h9.8c1.2,0,2.2-0.4,3-1.3c0.8-0.8,1.2-1.9,1.2-3.1
			C509.6,65.5,509.2,64.5,508.4,63.6 M522.5,73.8c-1.5,2.3-3.8,4-6.7,5.1l10.3,19.5h-16.8l-8.2-17h-5.5v17h-14.9V51.8h28.4
			c3.3,0,6.2,0.6,8.5,1.9c2.4,1.3,4.1,3,5.3,5.2c1.2,2.2,1.8,4.6,1.8,7.1C524.8,68.9,524,71.5,522.5,73.8"/>
		<path id="Fill-57" class="st2" d="M541.7,76.4h13.1c0-1.8-0.5-3.3-1.6-4.4c-1.1-1.1-2.5-1.6-4.4-1.6
			C544.6,70.4,542.2,72.4,541.7,76.4 M563.2,66.4c3.4,3.1,5.2,7.7,5.2,14v2.3h-26.7c0,2.6,0.6,4.5,1.7,5.8c1.1,1.3,3,2,5.4,2
			c2.3,0,3.9-0.5,5-1.4c1.1-0.9,1.6-2.2,1.6-3.8h13c0,4.3-1.6,7.7-4.9,10.1c-3.3,2.4-8.1,3.6-14.4,3.6c-6.6,0-11.8-1.5-15.4-4.6
			c-3.6-3.1-5.5-7.8-5.5-14c0-6.1,1.8-10.8,5.3-13.9c3.6-3.2,8.5-4.7,14.7-4.7C554.8,61.8,559.8,63.3,563.2,66.4"/>
		<path id="Fill-58" class="st2" d="M602.4,64.6c3.3,1.9,5,4.8,5,8.7h-12.5c0-1.3-0.6-2.2-1.8-2.8c-0.8-0.5-1.8-0.7-3-0.7
			c-3.2,0-4.9,0.8-4.9,2.3c0,0.9,0.6,1.5,1.7,1.8c1.1,0.4,3,0.7,5.5,1.1c3.2,0.5,5.8,1,7.9,1.6c2.1,0.6,4,1.7,5.5,3.2
			c1.6,1.6,2.4,3.7,2.4,6.5c0,4.5-1.7,7.8-5.1,9.7c-3.4,1.9-7.8,2.9-13.3,2.9c-3.2,0-6.1-0.4-8.9-1.3c-2.8-0.9-5.1-2.2-6.8-4.1
			c-1.8-1.8-2.6-4.2-2.6-7h12.5v0.3c0,1.5,0.7,2.6,1.9,3.2c1.2,0.6,2.6,0.9,3.9,0.9c3.7,0,5.6-0.9,5.6-2.6c0-0.9-0.6-1.6-1.8-2
			c-1.2-0.4-3.1-0.8-5.7-1.3c-3.2-0.5-5.8-1.1-7.9-1.8c-2-0.6-3.8-1.7-5.4-3.2c-1.5-1.5-2.3-3.6-2.3-6.3c0-4.4,1.7-7.5,5-9.3
			c3.3-1.8,7.6-2.8,12.9-2.8C595.1,61.8,599.1,62.8,602.4,64.6"/>
		<path id="Fill-59" class="st2" d="M624.7,78.6v3.8c0,5,2.2,7.6,6.6,7.6c4.5,0,6.7-2.5,6.7-7.6v-3.8c0-5.1-2.2-7.6-6.7-7.6
			C626.9,70.9,624.7,73.5,624.7,78.6 M646.1,66.6c3.6,3.2,5.4,7.8,5.4,13.9s-1.8,10.7-5.4,13.9c-3.6,3.2-8.5,4.8-14.8,4.8
			c-6.3,0-11.2-1.6-14.7-4.7c-3.6-3.2-5.3-7.8-5.3-13.9c0-6.1,1.8-10.8,5.3-13.9c3.6-3.2,8.5-4.7,14.7-4.7
			C637.6,61.8,642.5,63.4,646.1,66.6"/>
		<path id="Fill-60" class="st2" d="M682.1,98.3l-0.9-5.4c-1.4,1.9-3.2,3.5-5.5,4.6c-2.3,1.1-4.7,1.7-7.2,1.7
			c-4.1,0-7.2-1.1-9.3-3.4c-2.1-2.3-3.1-5.6-3.1-9.9V62.6h13.4v21.5c0,1.5,0.4,2.8,1.2,3.7c0.8,0.9,1.9,1.4,3.3,1.4
			c1.7,0,3-0.5,4.1-1.6c1-1.1,1.6-2.4,1.6-4V62.6h13.4v35.7H682.1z"/>
		<path id="Fill-61" class="st2" d="M724.1,62.1c0.8,0.2,1.2,0.4,1.2,0.4v11.3H721c-2.8,0-4.8,0.7-6,2.2c-1.2,1.4-1.9,3.6-1.9,6.4
			v15.9h-13.4V62.6h11l0.9,5.4c0.8-2.1,2.1-3.6,3.8-4.7c1.8-1.1,3.7-1.6,5.9-1.6C722.4,61.8,723.3,61.9,724.1,62.1"/>
		<path id="Fill-62" class="st2" d="M761.5,65.6c3.6,2.5,5.4,6.3,5.4,11.4h-13c0-4.1-2.2-6.1-6.6-6.1c-4.4,0-6.6,2.5-6.6,7.6v3.9
			c0,5,2.3,7.6,6.9,7.6c4.6,0,6.9-2.1,6.9-6.2h12.5c0,5.2-1.8,9-5.4,11.5c-3.6,2.5-8.4,3.8-14.2,3.8c-6.3,0-11.2-1.6-14.7-4.7
			c-3.6-3.2-5.3-7.8-5.3-13.9c0-6.1,1.8-10.8,5.3-13.9c3.6-3.2,8.5-4.7,14.7-4.7C753.1,61.8,757.9,63.1,761.5,65.6"/>
		<path id="Fill-63" class="st2" d="M783.8,76.4h13.1c0-1.8-0.5-3.3-1.6-4.4c-1.1-1.1-2.5-1.6-4.4-1.6
			C786.7,70.4,784.3,72.4,783.8,76.4 M805.3,66.4c3.4,3.1,5.2,7.7,5.2,14v2.3h-26.7c0,2.6,0.6,4.5,1.7,5.8c1.1,1.3,3,2,5.4,2
			c2.3,0,3.9-0.5,5-1.4c1.1-0.9,1.6-2.2,1.6-3.8h13c0,4.3-1.6,7.7-4.9,10.1c-3.3,2.4-8.1,3.6-14.4,3.6c-6.6,0-11.8-1.5-15.4-4.6
			c-3.6-3.1-5.5-7.8-5.5-14c0-6.1,1.8-10.8,5.3-13.9c3.6-3.2,8.5-4.7,14.7-4.7C796.9,61.8,801.9,63.3,805.3,66.4"/>
		<path id="Fill-64" class="st2" d="M844.5,64.6c3.3,1.9,5,4.8,5,8.7H837c0-1.3-0.6-2.2-1.8-2.8c-0.8-0.5-1.8-0.7-3-0.7
			c-3.2,0-4.9,0.8-4.9,2.3c0,0.9,0.6,1.5,1.7,1.8c1.1,0.4,3,0.7,5.5,1.1c3.2,0.5,5.8,1,7.9,1.6c2.1,0.6,4,1.7,5.5,3.2
			c1.6,1.6,2.4,3.7,2.4,6.5c0,4.5-1.7,7.8-5.1,9.7c-3.4,1.9-7.8,2.9-13.3,2.9c-3.2,0-6.1-0.4-8.9-1.3c-2.8-0.9-5.1-2.2-6.8-4.1
			c-1.8-1.8-2.6-4.2-2.6-7h12.5v0.3c0,1.5,0.7,2.6,1.9,3.2c1.2,0.6,2.6,0.9,3.9,0.9c3.7,0,5.6-0.9,5.6-2.6c0-0.9-0.6-1.6-1.8-2
			c-1.2-0.4-3.1-0.8-5.7-1.3c-3.2-0.5-5.8-1.1-7.9-1.8c-2-0.6-3.8-1.7-5.4-3.2c-1.5-1.5-2.3-3.6-2.3-6.3c0-4.4,1.7-7.5,5-9.3
			c3.3-1.8,7.6-2.8,12.9-2.8C837.2,61.8,841.2,62.8,844.5,64.6"/>
		<path id="Fill-65" class="st2" d="M221.9,134.2c-0.8-0.8-1.8-1.2-3-1.2h-9.8v8.6h9.8c1.2,0,2.2-0.4,3-1.3c0.8-0.8,1.2-1.9,1.2-3.1
			C223.2,136,222.8,135,221.9,134.2 M236.1,144.3c-1.5,2.3-3.8,4-6.7,5.1l10.3,19.5H223l-8.2-17h-5.5v17h-14.9v-46.5h28.4
			c3.3,0,6.2,0.6,8.5,1.9c2.4,1.3,4.1,3,5.3,5.2c1.2,2.2,1.8,4.6,1.8,7.1C238.4,139.5,237.6,142,236.1,144.3"/>
		<path id="Fill-66" class="st2" d="M255.3,147h13.1c0-1.8-0.5-3.3-1.6-4.4c-1.1-1.1-2.5-1.6-4.4-1.6
			C258.1,140.9,255.8,142.9,255.3,147 M276.8,137c3.4,3.1,5.2,7.7,5.2,14v2.3h-26.7c0,2.6,0.6,4.5,1.7,5.8c1.1,1.3,3,2,5.4,2
			c2.3,0,3.9-0.5,5-1.4c1.1-0.9,1.6-2.2,1.6-3.8h13c0,4.3-1.6,7.7-4.9,10.1c-3.3,2.4-8.1,3.6-14.4,3.6c-6.6,0-11.8-1.5-15.4-4.6
			c-3.6-3.1-5.5-7.8-5.5-14c0-6.1,1.8-10.8,5.3-13.9c3.6-3.2,8.5-4.7,14.7-4.7C268.3,132.4,273.3,133.9,276.8,137"/>
		<polygon id="Fill-67" class="st2" points="294.8,168.8 281.3,133.2 295.8,133.2 302.3,155.4 302.8,155.4 309.4,133.2 322.6,133.2 
			309,168.8 		"/>
		<path id="Fill-68" class="st2" d="M335.8,147h13.1c0-1.8-0.5-3.3-1.6-4.4c-1.1-1.1-2.5-1.6-4.4-1.6
			C338.6,140.9,336.3,142.9,335.8,147 M357.3,137c3.4,3.1,5.2,7.7,5.2,14v2.3h-26.7c0,2.6,0.6,4.5,1.7,5.8c1.1,1.3,3,2,5.4,2
			c2.3,0,3.9-0.5,5-1.4s1.6-2.2,1.6-3.8h13c0,4.3-1.6,7.7-4.9,10.1c-3.3,2.4-8.1,3.6-14.4,3.6c-6.6,0-11.8-1.5-15.4-4.6
			c-3.6-3.1-5.5-7.8-5.5-14c0-6.1,1.8-10.8,5.3-13.9c3.6-3.2,8.5-4.7,14.7-4.7C348.9,132.4,353.8,133.9,357.3,137"/>
		<path id="Fill-69" class="st2" d="M401.5,135.8c2.1,2.3,3.1,5.6,3.1,9.9v23.1h-13.4v-21.5c0-1.5-0.4-2.8-1.2-3.7
			c-0.8-0.9-1.9-1.4-3.3-1.4c-1.7,0-3,0.5-4.1,1.6c-1,1.1-1.6,2.4-1.6,4v20.9h-13.4v-35.7h11l0.9,5.4c1.4-1.9,3.2-3.4,5.5-4.5
			c2.3-1.1,4.7-1.7,7.2-1.7C396.3,132.4,399.4,133.5,401.5,135.8"/>
		<path id="Fill-70" class="st2" d="M436.9,168.8l-0.9-5.4c-1.4,1.9-3.2,3.5-5.5,4.6c-2.3,1.1-4.7,1.7-7.2,1.7
			c-4.1,0-7.2-1.1-9.3-3.4c-2.1-2.3-3.1-5.6-3.1-9.9v-23.1h13.4v21.5c0,1.5,0.4,2.8,1.2,3.7c0.8,0.9,1.9,1.4,3.3,1.4
			c1.7,0,3-0.5,4.1-1.6c1-1.1,1.6-2.4,1.6-4v-20.9h13.4v35.7H436.9z"/>
		<path id="Fill-71" class="st2" d="M466.4,147h13.1c0-1.8-0.5-3.3-1.6-4.4c-1.1-1.1-2.5-1.6-4.4-1.6
			C469.2,140.9,466.9,142.9,466.4,147 M487.9,137c3.4,3.1,5.2,7.7,5.2,14v2.3h-26.7c0,2.6,0.6,4.5,1.7,5.8c1.1,1.3,3,2,5.4,2
			c2.3,0,3.9-0.5,5-1.4s1.6-2.2,1.6-3.8h13c0,4.3-1.6,7.7-4.9,10.1c-3.3,2.4-8.1,3.6-14.4,3.6c-6.6,0-11.8-1.5-15.4-4.6
			c-3.6-3.1-5.5-7.8-5.5-14c0-6.1,1.8-10.8,5.3-13.9c3.6-3.2,8.5-4.7,14.7-4.7C479.5,132.4,484.4,133.9,487.9,137"/>
		<path id="Fill-72" class="st2" d="M535.9,157.7h4.9c6.3,0,9.4-3.4,9.4-10.1v-4.1c0-6.7-3.1-10.1-9.4-10.1h-4.9V157.7z
			 M565.5,145.6c0,15.5-8.1,23.2-24.4,23.2h-20.1v-46.5h20.1C557.3,122.4,565.5,130.1,565.5,145.6L565.5,145.6z"/>
		<path id="Fill-73" class="st2" d="M585.3,154.6c-1.8,0.8-2.7,1.9-2.7,3.3c0,2.3,1.5,3.4,4.6,3.4c1.8,0,3.3-0.5,4.6-1.4
			c1.3-0.9,2-2.1,2-3.5v-3C590,153.3,587.1,153.7,585.3,154.6 M602.1,135.1c3.4,1.8,5.1,4.8,5.1,8.9v13.9c0,0.8,0.2,1.4,0.5,1.9
			c0.4,0.5,0.9,0.7,1.6,0.7h2.4v7.8c-0.1,0.1-0.5,0.2-1,0.4c-0.6,0.2-1.4,0.4-2.4,0.6s-2.2,0.3-3.6,0.3c-2.6,0-4.8-0.4-6.4-1.2
			c-1.7-0.8-2.8-1.9-3.5-3.3c-1.7,1.3-3.6,2.4-5.7,3.2c-2.1,0.8-4.6,1.2-7.4,1.2c-8.4,0-12.6-3.3-12.6-10c0-3.5,0.9-6.1,2.8-7.9
			c1.9-1.8,4.6-3.1,8.1-3.7c3.5-0.7,8.1-1,13.8-1v-1.8c0-1.4-0.5-2.5-1.5-3.2c-1-0.7-2.2-1.1-3.7-1.1c-1.4,0-2.6,0.2-3.6,0.7
			c-1,0.5-1.5,1.3-1.5,2.4v0.3h-13.2c0-0.2-0.1-0.5-0.1-0.9c0-3.4,1.6-6.1,4.8-8c3.2-2,7.8-3,13.8-3
			C594.2,132.4,598.7,133.3,602.1,135.1"/>
		<path id="Fill-74" class="st2" d="M638,133.2v9.1h-7.6v13.6c0,1.6,0.3,2.8,0.8,3.5c0.5,0.7,1.5,1.1,3,1.1h3.8v7.9
			c-1.1,0.4-2.5,0.7-4.2,0.9c-1.7,0.2-3.2,0.3-4.5,0.3c-4,0-7-0.7-9.2-2.2c-2.1-1.4-3.2-3.9-3.2-7.4v-17.8h-5v-9.1h5.5l2.9-10.8h10
			v10.8H638z"/>
		<path id="Fill-75" class="st2" d="M657.2,154.6c-1.8,0.8-2.7,1.9-2.7,3.3c0,2.3,1.5,3.4,4.6,3.4c1.8,0,3.3-0.5,4.6-1.4
			c1.3-0.9,2-2.1,2-3.5v-3C661.8,153.3,659,153.7,657.2,154.6 M674,135.1c3.4,1.8,5.1,4.8,5.1,8.9v13.9c0,0.8,0.2,1.4,0.5,1.9
			c0.4,0.5,0.9,0.7,1.6,0.7h2.4v7.8c-0.1,0.1-0.5,0.2-1,0.4c-0.6,0.2-1.4,0.4-2.4,0.6s-2.2,0.3-3.6,0.3c-2.6,0-4.8-0.4-6.4-1.2
			c-1.7-0.8-2.8-1.9-3.5-3.3c-1.7,1.3-3.6,2.4-5.7,3.2c-2.1,0.8-4.6,1.2-7.4,1.2c-8.4,0-12.6-3.3-12.6-10c0-3.5,0.9-6.1,2.8-7.9
			c1.9-1.8,4.6-3.1,8.1-3.7c3.5-0.7,8.1-1,13.8-1v-1.8c0-1.4-0.5-2.5-1.5-3.2c-1-0.7-2.2-1.1-3.7-1.1c-1.4,0-2.6,0.2-3.6,0.7
			c-1,0.5-1.5,1.3-1.5,2.4v0.3h-13.2c0-0.2-0.1-0.5-0.1-0.9c0-3.4,1.6-6.1,4.8-8c3.2-2,7.8-3,13.8-3
			C666.1,132.4,670.6,133.3,674,135.1"/>
	</g>
</g>
<g>
	<defs>
		<path id="SVGID_3_" d="M56,95.5h77.8v8.1H56V95.5z M83.7,86.1l20.7-15.2l2.4,21.7H83L83.7,86.1z M55.2,76.2l-2.4-10.1l9,6.4h-4.1
			c-0.8,0-1.5,0.7-1.5,1.5v0v3.1L55.2,76.2z M42.4,64.4l7,0.3l1.9,8L42.4,64.4z M87,56.3l16,11.9L84.2,82.1L87,56.3z M39.6,61.3
			l-1.4-5.5l8.1,5.8L39.6,61.3z M31,53.9l3.7,0.2l1.1,4.3L31,53.9z M28.2,50.8l-0.6-2.6l3.8,2.7L28.2,50.8z M21.7,45.2l0.6-0.7
			l1.6,1.1l0.5,2L21.7,45.2z M88.2,53.6l13.3-10l2.3,21.5L88.2,53.6z M89.5,33l10.6,8l-12.5,9.4L89.5,33z M90.6,30.2l8.7-6.5
			l1.5,14.2L90.6,30.2z M91.3,16.5h7.2l0.4,3.8l-8.7,6.6L91.3,16.5z M87,13.5c-0.8,0-1.5,0.7-1.5,1.5c0,0.8,0.7,1.5,1.5,1.5h1.4
			l-8.2,76.1H79V74c0-0.8-0.7-1.5-1.5-1.5H66.8l-44-31.3c-0.6-0.4-1.5-0.3-2,0.3l-2.3,2.8c-0.5,0.6-0.4,1.5,0.1,2l37.5,34.7v11.4
			h-1.7c-0.8,0-1.5,0.7-1.5,1.5v11c0,0.8,0.7,1.5,1.5,1.5H59V134h9.2v-27.5h55.3V134h9.2v-27.5h2.5c0.8,0,1.5-0.7,1.5-1.5V94
			c0-0.8-0.6-1.5-1.5-1.5h0h-25.5l-8.3-76.1h1.4c0.8,0,1.5-0.7,1.5-1.5c0-0.8-0.7-1.5-1.5-1.5H87z"/>
	</defs>
	<clipPath id="SVGID_4_">
		<use xlink:href="#SVGID_3_"  style="overflow:visible;"/>
	</clipPath>
	<rect x="14.4" y="9.7" class="st3" width="126" height="128"/>
</g>
<rect x="93.4" y="14.9" class="st4" width="3" height="111"/>
<g class="st0">
	<g>
		<defs>
			<rect id="SVGID_5_" x="80.6" y="119.5" width="28.7" height="54.4"/>
		</defs>
		<clipPath id="SVGID_6_">
			<use xlink:href="#SVGID_5_"  style="overflow:visible;"/>
		</clipPath>
		<g class="st5">
			<text transform="matrix(1.1237 0 0 1 80.6335 158.9755)" class="st4 st6 st7">$</text>
		</g>
	</g>
</g>
</svg>
