<?xml version="1.0" encoding="UTF-8"?>
<svg id="Layer_1" data-name="Layer 1" xmlns="http://www.w3.org/2000/svg" xmlns:xlink="http://www.w3.org/1999/xlink" viewBox="0 0 800 182.91">
  <defs>
    <style>
      .cls-1 {
        font-family: Lato-Regular, Lato;
        font-size: 36px;
        fill: #ffffff;
      }

      .cls-2 {
        letter-spacing: 0em;
      }

      .cls-3 {
        letter-spacing: -.01em;
      }

      .cls-4 {
        letter-spacing: -.02em;
      }

      .cls-5 {
        fill: none;
      }

      .cls-6 {
        letter-spacing: -.01em;
      }

      .cls-7 {
        fill: #a0c7d8;
      }

      .cls-8 {
        clip-path: url(#clippath-1);
      }

      .cls-9, .cls-10 {
        isolation: isolate;
      }

      .cls-10 {
        font-family: ArialMT, Arial;
        font-size: 46px;
      }

      .cls-10, .cls-11 {
        fill: #15314b;
      }

      .cls-12 {
        font-family: Lato-Black, Lato;
        font-size: 56px;
        font-weight: 800;
        fill: #ffffff;
      }

      .cls-13 {
        letter-spacing: -.02em;
      }

      .cls-14 {
        clip-path: url(#clippath-2);
      }

      .cls-15 {
        clip-path: url(#clippath);
      }
    </style>
    <clipPath id="clippath">
      <rect class="cls-5" y="9" width="173.1" height="173.1"/>
    </clipPath>
    <clipPath id="clippath-1">
      <path class="cls-5" d="M56,104.5h77.8v8.1H56v-8.1ZM83.7,95.1l20.7-15.2,2.4,21.7h-23.8l.7-6.5ZM55.2,85.2l-2.4-10.1,9,6.4h-4.1c-.8,0-1.5.7-1.5,1.5v3.1l-1-.9ZM42.4,73.4l7,.3,1.9,8-8.9-8.3ZM87,65.3l16,11.9-18.8,13.9,2.8-25.8ZM39.6,70.3l-1.4-5.5,8.1,5.8-6.7-.3ZM31,62.9l3.7.2,1.1,4.3-4.8-4.5ZM28.2,59.8l-.6-2.6,3.8,2.7-3.2-.1ZM21.7,54.2l.6-.7,1.6,1.1.5,2-2.7-2.4ZM88.2,62.6l13.3-10,2.3,21.5-15.6-11.5ZM89.5,42l10.6,8-12.5,9.4,1.9-17.4ZM90.6,39.2l8.7-6.5,1.5,14.2-10.2-7.7ZM91.3,25.5h7.2l.4,3.8-8.7,6.6,1.1-10.4ZM87,22.5c-.8,0-1.5.7-1.5,1.5s.7,1.5,1.5,1.5h1.4l-8.2,76.1h-1.2v-18.6c0-.8-.7-1.5-1.5-1.5h-10.7l-44-31.3c-.6-.4-1.5-.3-2,.3l-2.3,2.8c-.5.6-.4,1.5.1,2l37.5,34.7v11.4h-1.7c-.8,0-1.5.7-1.5,1.5v11c0,.8.7,1.5,1.5,1.5h4.6v27.6h9.2v-27.5h55.3v27.5h9.2v-27.5h2.5c.8,0,1.5-.7,1.5-1.5v-11c0-.8-.6-1.5-1.5-1.5h-25.5l-8.3-76.1h1.4c.8,0,1.5-.7,1.5-1.5s-.7-1.5-1.5-1.5h-15.8v.1Z"/>
    </clipPath>
    <clipPath id="clippath-2">
      <rect class="cls-5" x="80.6" y="128.5" width="28.7" height="54.4"/>
    </clipPath>
  </defs>
  <g class="cls-9">
    <g class="cls-15">
      <path class="cls-7" d="M158.9,182.1H14.2c-7.8,0-14.2-6.4-14.2-14.2V23.2c0-7.8,6.4-14.2,14.2-14.2h144.7c7.8,0,14.2,6.4,14.2,14.2v144.7c0,7.9-6.3,14.2-14.2,14.2"/>
    </g>
  </g>
  <g class="cls-8">
    <rect class="cls-11" x="14.4" y="18.7" width="126" height="128"/>
  </g>
  <rect class="cls-11" x="93.4" y="23.9" width="3" height="111"/>
  <g class="cls-9">
    <g class="cls-14">
      <text class="cls-10" transform="translate(80.63 167.98) scale(1.12 1)"><tspan x="0" y="0">$</tspan></text>
    </g>
  </g>
  <text class="cls-1" transform="translate(203 46.9)"><tspan x="0" y="0">Office of Natural Resources Revenue</tspan></text>
  <text class="cls-12" transform="translate(200 110)"><tspan x="0" y="0">Natural Resources</tspan></text>
  <text class="cls-12" transform="translate(200 170)"><tspan x="0" y="0">Revenue Data</tspan></text>
</svg>