<?xml version="1.0" encoding="utf-8"?>
<!-- Generator: Adobe Illustrator 26.0.1, SVG Export Plug-In . SVG Version: 6.00 Build 0)  -->
<svg version="1.1" id="Official_Logo" xmlns="http://www.w3.org/2000/svg" xmlns:xlink="http://www.w3.org/1999/xlink" x="0px"
	 y="0px" viewBox="0 0 640 640" enable-background="new 0 0 640 640" xml:space="preserve">
<path id="blue_sky" fill="#90CFF2" d="M4.1,276.8V91.6c0-61.2,43.3-87.5,82.8-87.4h468c37,0,81.1,25.3,80.8,85.4l1,187.2H4.1z"/>
<g id="Sky_rays">
	<g>
		<g>
			<g>
				<g>
					<g>
						<g>
							<g>
								<defs>
									<path id="onrr_mark_SVGID_1_" d="M4,286.8L3,84.6C3,33,40.2,3.2,89.9,3.2h461.8c42.1,0,84.9,21.5,83.9,88.4l1,195.2H4z"/>
								</defs>
								<clipPath id="onrr_mark_SVGID_00000070094599181608023090000008268055031008634255_">
									<use xlink:href="#onrr_mark_SVGID_1_"  overflow="visible"/>
								</clipPath>
								<g clip-path="url(#onrr_mark_SVGID_00000070094599181608023090000008268055031008634255_)">
									<path fill="none" stroke="#BCE2F8" stroke-width="290" stroke-miterlimit="10" stroke-dasharray="44.622,44.622" d="
										M545.3,346.8C499.1,474,362.5,538.1,240.1,490.2s-184.2-189.9-138-317S284.9-18.2,407.3,29.8S591.4,219.7,545.3,346.8z"/>
								</g>
							</g>
						</g>
					</g>
				</g>
			</g>
		</g>
	</g>
</g>
<g enable-background="new    ">
	<path fill="#262262" d="M26.5,75.7c0-14.3,3.8-25.4,11.5-33.5c7.7-8.1,17.5-12.1,29.6-12.1c7.9,0,15.1,1.9,21.4,5.7
		c6.4,3.8,11.2,9.1,14.6,15.8c3.3,6.8,5,14.5,5,23c0,8.7-1.8,16.5-5.3,23.4c-3.5,6.9-8.5,12.1-14.9,15.6c-6.4,3.5-13.4,5.3-20.8,5.3
		c-8.1,0-15.3-2-21.7-5.9c-6.4-3.9-11.2-9.2-14.5-16C28.1,90.4,26.5,83.2,26.5,75.7z M38.2,75.9c0,10.3,2.8,18.5,8.3,24.5
		c5.6,6,12.5,8.9,20.9,8.9c8.6,0,15.6-3,21.1-9c5.5-6,8.3-14.5,8.3-25.6c0-7-1.2-13.1-3.5-18.3C91,51.1,87.5,47.1,83,44.2
		c-4.5-2.9-9.7-4.3-15.3-4.3c-8,0-15,2.8-20.8,8.3S38.2,62.9,38.2,75.9z"/>
	<path fill="#262262" d="M123.1,117.5V31.7h11.7l45.1,67.4V31.7h10.9v85.9h-11.7L134,50v67.5H123.1z"/>
	<path fill="#262262" d="M210,117.5V31.7h38.1c7.7,0,13.5,0.8,17.5,2.3c4,1.5,7.2,4.3,9.5,8.2c2.4,3.9,3.6,8.2,3.6,12.9
		c0,6.1-2,11.2-5.9,15.4c-3.9,4.2-10,6.8-18.3,8c3,1.4,5.3,2.9,6.9,4.3c3.3,3,6.5,6.9,9.4,11.4l14.9,23.4h-14.3L260,99.6
		c-3.3-5.2-6.1-9.1-8.2-11.8c-2.1-2.7-4.1-4.6-5.8-5.7c-1.7-1.1-3.4-1.9-5.2-2.3c-1.3-0.3-3.4-0.4-6.3-0.4h-13.2v38.1H210z
		 M221.4,69.5h24.4c5.2,0,9.3-0.5,12.2-1.6c2.9-1.1,5.2-2.8,6.7-5.2c1.5-2.4,2.3-4.9,2.3-7.7c0-4.1-1.5-7.4-4.4-10
		c-2.9-2.6-7.6-3.9-14-3.9h-27.2V69.5z"/>
	<path fill="#262262" d="M296.6,117.5V31.7h38.1c7.7,0,13.5,0.8,17.5,2.3c4,1.5,7.2,4.3,9.5,8.2c2.4,3.9,3.6,8.2,3.6,12.9
		c0,6.1-2,11.2-5.9,15.4c-3.9,4.2-10,6.8-18.3,8c3,1.4,5.3,2.9,6.9,4.3c3.3,3,6.5,6.9,9.4,11.4l14.9,23.4H358l-11.4-17.9
		c-3.3-5.2-6.1-9.1-8.2-11.8c-2.1-2.7-4.1-4.6-5.8-5.7c-1.7-1.1-3.4-1.9-5.2-2.3c-1.3-0.3-3.4-0.4-6.3-0.4H308v38.1H296.6z
		 M308,69.5h24.4c5.2,0,9.3-0.5,12.2-1.6c2.9-1.1,5.2-2.8,6.7-5.2c1.5-2.4,2.3-4.9,2.3-7.7c0-4.1-1.5-7.4-4.4-10
		c-2.9-2.6-7.6-3.9-14-3.9H308V69.5z"/>
</g>
<path id="big_mtn_white_snow" fill="#FFFFFF" d="M602.5,196c-14.6-7.3-47.7-36.3-53-38.3c-3.3-1.3-7.8-0.8-10.1,1.1l-14.8,11.6
	c-2.4,1.8-7.7,4.9-11.6,4.2l-8.6-0.8c-4.3-0.8-9-5.5-12.3-3.8l-6.9,5.6c-3.6,1.8-18.7,12.4-21.9,10.3l-14.9-5.6
	c-1.9-1.3-9.9-4.9-12.6-5.5l-6.5-5.5c-1.9-1.6-5.3-2.3-8.6-1.9c-3.8,0.6-7.9,1.8-9.3,3.2c-6.6,6.3-17.1,18.3-19.9,19.5
	c-1,0.4-16.4,15.8-17.1,16.4l-28.8,21.1c-2,1.6-1.7,2.4-8.9,2.9c-3.9,0.3-13.8-1.9-19-2.6c-1.9-0.2-3.7-0.7-5.3-1.4l-18.5-7.6
	c-3.8-2.7-9-2.6-13.7-0.4l-21.1,15c-0.9,0.4-1.9,0.8-2.9,1.2l-52.1,18.8c-3.4,1.6-8.4-1.3-11.4-3.1l-27-13.1
	c-4.6-2.7-12.4-2.6-16.8,0.3l-25.3,17c-0.3,0.2-0.7,0.3-1.2,0.3l-34-2.6c-6.6-0.5-13.2,1.1-17.2,4.1c-6.3,4.8-16.1,11.8-23.8,17
	c-5.9,3.9-27.4,12.2-32.4,17.2c-3.8,3.6-10.1,7-11.1,13.3v0.1v20.6c0,20.3,617.9-20.1,633.2-25.3l-0.2-86.6
	c-10.3-8.2-16.2-11.8-25.4-13.5C608.2,198.3,605.2,197.3,602.5,196z"/>
<path id="big_mtn" fill="#2B3990" d="M636.9,310.7v-98.4c-15.2-6.3-21.3-9.6-28.5-10.5c-4.4-0.6-8.4-1.9-11.2-4
	c-8.9-6.6-20.1-11.6-31.2-24.9c-1.6-2-7.1-4.7-10.3-6l-9.6-5.5c-3.1-1.2-7.2-0.8-9.6,0.8l-19.1,13.5c-1.3,0.9-3.5,1.3-5.4,0.9
	l-17.6-3.2c-1.8-0.4-3.8-0.1-5.2,0.7l-18.6,10.2c-3.1,2.1-6.2,3-12.9,1.6l-18.9-6.7c-0.6-0.2-1.1-0.4-1.6-0.8
	c-2.9-1.7-13.8-6.5-13.8-6.5c-5.3-1.2-11.3-0.1-14.2,2.8L378,205l-28.6,24c-2.7,2.3-7.6,3.4-12.2,2.7c-4.9-0.7-10.8-1.3-12.7-1.5
	c-19.2-2.5-31.5-7.5-33.9-9.1l-1-0.2c-2.9-2-8-1.8-11.5-0.1l-17,13.7l-56.9,21.9c-2,1.1-5.1,0.9-6.8-0.3L158,242.4
	c-3.3-2.4-9.4-2.5-13.1-0.3l-26.6,15.7c-2.9,1.8-7.2,2.5-11.3,2.1l-19.6-3.3c-3.1-0.7-6.5-0.4-9.2,0.7c0,0-26.5,17.4-45.6,24.7
	c-13.7,5.4-30.5,23.8-29.2,23.5v138.7C3.6,481.6,43,497,98.7,496.8l16.4,0.2l444.5-0.2c38.1-0.4,74.8-20.1,75.9-40.5
	C638.8,395.5,636.9,310.7,636.9,310.7z"/>
<g id="_x32_nd_mtn_white_snow">
	<path fill="#FFFFFF" d="M4.6,319.5l10.5-12.7c0.3-0.4,0.8-0.8,1.3-1c4.9-1.8,31.3-11.8,48.5-22.9c15.1-9.7,29.1-23.6,34.3-29
		c1.2-1.2,3.1-1.2,4.3-0.1l8.3,13.2c1.3,1.3,4.4-2.9,5.5-4.3l31.3-38.7c0.2-0.2,0.5-0.5,1-0.8c4.4-2.6,10.1-1.8,13.7,1.9l56,58
		c1.1,0.8,18.2-10.5,19.3-11.2l19.4-18.4c4.7-3.6,12.3-5.1,16.4-0.8l34.2,42.7c0.9,0.9,2.3,4.2,3.5,3.6l25.3-15.3
		c1.1-0.5,5.3-0.4,6.2,0.4l42.5,43.1c1.1,0.9,5.7-3.1,6.8-4l12.2-9.3c1.1-0.9,2.7-0.8,3.8,0.1l14.3,13.8
		c2.8,2.3,22.9,15.7,19.7,14.1L416.4,328c-1.3-0.7-10-14.3-10.9-13.1l-7.2,5.5c-0.4,0.6-10.1,10.1-12.6,7.9l-24.8-20.6
		c-1.3-1.4-17.1-14.6-21.3-20.6c-1.1-1.6-4.8-1.7-6.4-0.5c-2.8,2-5.5,3.6-6.5,4.2c0,0-12.5,7.8-14.3,9.4c-2.6,2.4-3.1,1.6-3.7,0.9
		c0,0-29.7-28.9-31.5-29.6c-1.6-0.6-7.8-10.2-12.2-14.2c-1.4-1.3-3.6-1.4-5.1-0.2l-21.4,16.3c-0.1,0.1-7.5,6.4-13.4,11.5
		c-3.9,3.4-8.3-0.8-12.6-3c-4.8-2.5-12.5-8.4-17.2-12.6c-3.1-2.9-10-8.1-12.5-11.5c-1.3-1.8-7.3-8.2-9.5-10.7
		c-0.6-0.6-1.2-1.2-1.9-1.7l-10.1-7.8c-1-1-5.3-6.2-9.4-8.9c-2.1-1.4-5-1-6.7,1L132.5,245c-0.8,1.4-8.8,11.6-10,12.6l-6.4,9.1
		c-0.9,1.2-2,2.2-3.2,3c-1.7,1-2.4,1.7-4.4-1.1l-6.6-7c-0.9-1.7-3.1-2.1-4.6-0.8c-21.9,18.3-61.9,41.5-76.8,47.6
		c-12.7,5.2-15.7,14.2-15.7,14.2L4.6,319.5z"/>
</g>
<path id="_x32__nd_mtn" fill="#262262" d="M416.3,327.9c-1.3-0.7-10-14.3-10.9-13.1l-7.2,5.5c-0.4,0.6-10.1,10.1-12.6,7.9
	l-24.8-20.6c-1.3-1.4-17.1-14.6-21.3-20.6c-1.1-1.6-4.8-1.7-6.4-0.5c-2.8,2-5.5,3.6-6.5,4.2c0,0-12.5,7.8-14.3,9.4
	c-2.6,2.4-3.1,1.6-3.7,0.9c0,0-29.7-28.9-31.5-29.6c-1.6-0.6-7.8-10.2-12.2-14.2c-1.4-1.3-3.6-1.4-5.1-0.2l-21.4,16.3
	c-0.1,0.1-7.5,6.4-13.4,11.5c-3.9,3.4-8.3-0.8-12.6-3c-4.8-2.5-12.5-8.4-17.2-12.6c-3.1-2.9-10-8.1-12.5-11.5
	c-1.3-1.8-10.7-11.9-11.4-12.4l-10.1-7.8c-1-1-5.3-6.2-9.4-8.9c-2.1-1.4-5-1-6.7,1L132.5,245c-0.8,1.4-8.8,11.6-10,12.6l-3.8,5.4
	c-1.3,1.8-3.1,5.2-5.1,6.3c-2.3,1.2-2.9,2.6-5.2-0.7l-6.6-7c-0.9-1.7-3.1-2.1-4.6-0.8c-15.8,13.2-56.5,34.7-79.7,48
	c-8.9,5.1-9.3,9-13.5,10.7L3.8,552.9c-0.8,45.8,36.9,81.5,74.4,82.4h478c54.3,0,80.4-47.1,79.6-76.3l-0.2-158.3
	c-1.8-13.4-52.5,29.5-62,22c-12.9-10.2-42.5-59-59.8-64.6c-9.6-3.1-34.2,26.1-41.4,18.6c-12.5-12.9-19.1-26-30.5-35.4L416.3,327.9z"
	/>
<path id="tree_3" fill-rule="evenodd" clip-rule="evenodd" fill="#FFFFFF" d="M482.5,296.6l-0.4-0.6c1.7,0.1-1.2-1.9-1.2-1.9
	c-1.2-0.6-0.9-0.7-1.3-0.9c-1-0.6-2.7-1.8-2.1-1.3c-0.4-0.3-1.8-0.5-1.8-0.5s-0.8,0.3-0.9-0.2c0-0.5-0.4-1.2-0.4-1.2l-0.8-0.3
	c0.1-0.4,0-1-0.1-1.6c0.4,0.1,0.8,0.3,1.1,0.6c1.1,1.5,1.4,0.2,0.3-1l2.3,1.4v-1l2.1,1.7l2.3,0.9c0,0-0.4-0.7-1.8-1.7
	c-1.4-0.9-3.7-2.4-3.7-2.4s-3.6-0.6-4.2-1.6c-0.2-0.3-0.5-0.7-0.8-1.1c1.7,0.6,3.5,1.2,3.5,1.2l-2.3-1.4l-3-1.8l-1.5-1.6
	c-0.3-0.8-0.3-1.6-0.2-2.1c0,0.1,0.1,0.3,0.1,0.4c-0.1,0.9,0.4,1.5,0.4,1.5l0.7-2l0,0l-0.2,0.9c0,0,0.5,0.5,0.7,1.3
	c0.1,0.3,0.2,0.1,0.2-0.4h0.1c0.2,0,0.1-0.8,0-1.6v-0.1l0.3,0.2l0.4,0.9c0,0,0.9,3.4,1.3,2.9l0,0c0.3,0.5,0.3-0.4,0.3-1.3
	c0.2,0.6,0.5,1.1,0.7,1s-0.1-1-0.4-2.1l0.7,0.4c0,0,0.8,1.8,1.2,2.1c0.5,0.3-0.3-2-0.3-2l1.6,1.1c0,0,1,1.8,1.4,1.8
	c0.5,0-0.6-1.7-0.6-1.7l1.4,1.3c1.1,1.3,2.4,0.4,1.5-0.1s-4-3.2-4-3.2s-1.7-2.4-2.9-3.6c-0.4-0.4-1-0.6-1.7-0.8l-0.6-1.5
	c0.1,0,0.1-0.1,0.2-0.1l1.5,1.3l0.7-0.5l0.6,1.3l0.9,0.6l-0.1-1.3c0,0,0.5,0.3,0.8,1c0.4,0.7,1.3,0.8,1.3,0.8l-1.2-2.3l0,0l0.8,1
	c1.1,1.1,1.7,0.6,1.7,0.6l-0.8-1.8c0,0-2.2-1.4-3.7-1.8c-1-0.3-3.7-3.2-5.3-5c0-0.3,0-1.3-0.3-2.1c0.7,0.3,1.7,0.9,1.7,1.7
	c0,1.2,2.7,0.3,2.7,0.3l-1.1-1.7c0,0,1.4,0.4,1.9,0.7c0.5,0.2,1.2,0.2,1.2,0.2s-2.1-1.9-3-2.1c-0.6-0.2-3.5-3.8-4.8-5.6l-0.6-2
	l-0.8-3.5c0,0-0.9,2.1-0.7,3.2c0.2,1.2-1.7,4.5-1.7,4.5s-2.1,2.1-3.2,2.3c-1.1,0.2-2.2,1.6-2.2,1.6s-1,0.9-1.6,0.7
	c-0.6-0.1-1.1,0.7,0.1,0.5c0.9-0.2,1.5-0.3,1.7-0.4v0.1l-1.1,1.5c0,0,0.7,0,1.5-0.7s1.2-1.1,1.2-1.1l-0.6,2c0,0,0.9,0,1.2-0.7
	c0.3-0.7,1.1-1.7,1.1-1.7l0.6,1.7l2-0.2c-0.1,0.5-0.2,0.6-0.2,0.6s-4,3.2-5.3,3.6l-3,1l-2,2.1c0,0-0.1,0.8,0.8,0.3l1-0.9
	c0,0-1.5,1.9-0.7,1.7c0.8-0.2,1.5-1.3,1.5-1.3l1.1-0.4v0.1c0,0.1-0.1,0.1-0.1,0.2l-0.8,1.8c0,0,1-0.2,1.6-1.1c0.5-0.9,1-1.1,1-1.1
	l0.4,0.3l-0.7,1.5c0,0,0.7-0.5,1.2-1.1c0.2-0.2,0.9-0.3,1.7-0.3c-0.4,0.6-1.1,1.1-1.1,2.1c-0.5-0.1-0.5,0.6-1.3,0.7
	c0,0-3.9,1.2-4.6,1.9c0,0-1-0.5-2.2-0.1c-1.1,0.4-0.3,1,0.4,1l-1.3,0.9c0,0-2.5,2.6-0.7,2.2l1.3-1.4c0,0-0.4,1.2,0.6,0.5l1.3-1.4
	l-0.5,2.2c0,0,0.9-0.4,0.9-1.1l0.7-1.4c0,0-0.1,2.9,0.2,2c0.3-0.9,0.7-1.9,0.7-1.9s0.2,1.5,0.7,1.1c0.6-0.4,0.3-1.2,0.3-1.2l1-0.7
	l0.9,1.6c0,0,0.4-1.2,0.8-1.6s0.9-0.4,0.9-0.4l0.3,0.4l-0.1,0.3c-1.3,0.4-1.7,1.9-1.7,1.9v0.4c-4.5,1.3-6.8,2.7-7.6,3.2
	c-1.1,0.7-2.7,2.8-2.7,2.8s-1.3,1.6-0.5,1.5c0.8,0,1.1-1.1,1.1-1.1l1.2-0.9l-0.8,2.4c0,0,1.4-1.4,1.5-2.1s1.1-1.1,1.1-1.1l-0.1,2.5
	c0,0,0.2-0.2,0.8-0.9c0.5-0.7,0.5-1.9,0.8-1.9s1.2-0.4,1.2-0.4l-0.3,1.3c-0.1,0-0.2,0-0.2,0.1c-0.8,0.8-1.2,0.9-1.2,0.9
	s-0.4,0.7-0.7,1c0.6-0.6-1.9,0.6-2,1.8c-0.1,0.6-0.3-0.2-1.5,0.6c0,0-1.7,1.6-0.3,1.4l-1.2,1.6c0,0-2.5,3.5-1.6,3.4
	c0.9,0,1.5-1.8,1.5-1.8s-0.4,1.4,0.5,1.5s1.7-1.9,1.7-1.9l1.2-1.7v0.1c-0.2,0.7-0.7,2.8,0.1,2.7c0.9-0.2,0.4-2.5,1.4-2.9
	s2.1-1.3,2.1-1.3s-0.7,2.7-0.1,2c0.5-0.7,1.7-3.3,2.3-3.3c0.6,0-0.5,3.7,1.6,0.8c1.1-1.5,1.4-2,1.5-2.2l1.6,0.4
	c0.1,0.2,0.2-3.2,0.2-3l-1.2,4.3c0,0-0.3-0.1-0.4,0.6s-0.6,0.8-0.6,0.8s-0.1,0.6-0.4,1c0.4-0.6-1.3,0.9-1.8,1.3
	c-0.4,0.1-0.8,0.3-1.2,0.5c0,0-0.6,0.8-0.7,1.2c-0.2,0.2-0.5,0.4-0.7,0.5c-0.7,0.1-1.7,0.4-2.4,1l-2.1,2.5l-1.8,1.6
	c0,0-1.8,3.4,0.7,1.1l1.3-1.9l1,0.2l-1.6,1.9c0,0-2,2.8,1,0.3c0.9-0.8,1.7-2,1.7-2l1.1-0.6c-0.6,1.3-1.4,3.1-1,3.2
	c0.6,0.2,1.3-2.2,1.3-2.2s-0.5,1.9,0,2.3s0.8-2.3,0.8-2.3l0.3-0.2c0.2,0.3,0.4,0.5,0.6,0.7c0,0.7,0.1,1.5,0.4,1.4
	c0.6-0.1,0.9-3,1.6-3.3c0,0,0,0,0.1,0c0.1,0.8,0.3,1.6,0.6,2c-0.4,1.6-1.2,4.5-0.8,4.7c0.4,0.2,0.9-2.7,0.9-2.7s-0.4,2.4,0.1,2.9
	c0.4,0.6,1.1-3,1.1-3l0.8-2.8c0,0-0.6,3.4-0.1,3.3s0.5-2.1,1-2.4c0.5-0.4,0.3,0,0.3,0s-0.1,2.7,0.3,1.6c0.2-0.6,0.4-1.7,0.6-2.5
	l0.4,1.2l0.2-0.1c0.1,1,0.3,1.4,0.9-1.2c0.5-2,0.7-2.7,0.7-2.7l0.3-0.1l0.4,3.8c0,0,0,4.3,0.3,6.6c0.3,2.3-1,11.8-1,11.8
	c0.3,0.2,0.6,0.3,0.9,0.4c0.1,0.4,0.4,0.9,1.4,0.7c0.2-0.1,0.4-0.2,0.6-0.4c1.2-0.2,1.3-1.4,1.3-1.4s-0.7-8.1-0.5-8.9
	c0.1-0.8-0.7-8.8-0.7-8.8l-0.1-1.4c0.8,1.6,0.1-2.5,0.4-2.5c0.4,0,1.3,3.7,1.7,4.7c0.4,1-0.3-3-0.3-3s0.8,1.2,1.5,1.7s0.5,4,1.1,4.2
	s-0.2-4.3-0.2-4.3l1,2.5c0,0,0.7,3,1.3,2.7c0.6-0.3,0.2-2.3,0.2-2.3s0.5,2.5,1.1,2.5s-1.3-5-1.3-5l-0.9-2.2c0.9,0.2,0.7-2.2-0.1-3.2
	c-0.1-0.2-0.3-0.2-0.4-0.2c-0.1-0.2-0.1-0.3-0.1-0.3s1.2,0.8,2.2,1.1c1,0.3,0.7,2.7,1.6,2.8c0.9,0.1-0.2-2.8-0.2-2.8l1.4,1.6
	c0,0,1,2,1.9,1.8s0.4-1.5,0.4-1.5s0.7,1.6,1.7,1.6c0.9,0-1.8-3.3-1.8-3.3l-1.3-1.5c0.5,0,0.8-0.2,0.9-0.5c0.6,0.7,0.4,2.4,1.2,2.5
	c0.9,0.1-0.2-2.9-0.2-2.9l1.4,1.6c0,0,1,2,1.9,1.8s0.4-1.5,0.4-1.5s0.7,1.6,1.7,1.6C485.3,299.8,482.5,296.6,482.5,296.6z"/>
<path id="tree_2" fill-rule="evenodd" clip-rule="evenodd" fill="#FFFFFF" d="M555.5,247.5l-0.7-1.1c3.4,0.3-2.3-3.8-2.3-3.8
	c-2.3-1.2-1.8-1.4-2.6-1.9c-2-1.3-5.5-3.6-4.3-2.5c-0.7-0.6-3.6-1-3.6-1s-1.7,0.5-1.7-0.5s-0.8-2.3-0.8-2.3l-1.6-0.6
	c0.1-0.9,0-2-0.3-3.1c0.9,0.2,1.7,0.6,2.1,1.2c2.2,2.9,2.8,0.4,0.6-2.1l4.6,2.8l-0.1-2l4.2,3.3l4.5,1.8c0,0-0.7-1.5-3.6-3.4
	c-2.8-1.9-7.4-4.7-7.4-4.7s-7.2-1.2-8.4-3.2c-0.4-0.7-1-1.5-1.5-2.2c3.5,1.3,7.1,2.3,7.1,2.3l-4.7-2.8l-6-3.5l-3-3.2
	c-0.6-1.7-0.6-3.1-0.4-4.3c0.1,0.3,0.2,0.6,0.2,0.8c-0.1,1.8,0.8,3,0.8,3l1.4-3.9l0,0l-0.3,1.8c0,0,1,1,1.5,2.6
	c0.2,0.7,0.3,0.1,0.4-0.7c0.1,0,0.1,0.1,0.2,0.1c0.5,0,0.3-1.6-0.1-3.3c0-0.1,0-0.1,0-0.1l0.6,0.4l0.7,1.8c0,0,1.8,6.9,2.6,5.7v-0.1
	c0.5,1,0.6-0.8,0.6-2.6c0.4,1.2,1,2.3,1.3,2.1s-0.1-2-0.7-4.1l1.4,0.8c0,0,1.5,3.6,2.5,4.3c0.9,0.6-0.6-4-0.6-4l3.3,2.2
	c0,0,2,3.6,2.9,3.6s-1.3-3.3-1.3-3.3l2.8,2.6c2.2,2.6,4.8,0.8,3-0.1c-1.9-0.9-8-6.4-8-6.4s-3.4-4.9-5.8-7.2c-0.8-0.7-2-1.2-3.4-1.5
	l-1.2-3c0.1,0,0.2-0.1,0.3-0.2l3,2.5l1.3-1.1l1.2,2.6l1.9,1.3l-0.1-2.7c0,0,0.9,0.6,1.7,1.9c0.7,1.3,2.6,1.6,2.6,1.6l-2.5-4.6l0,0
	l1.7,1.9c2.1,2.3,3.5,1.2,3.5,1.2l-1.5-3.6c0,0-4.5-2.8-7.5-3.7c-2.1-0.6-7.5-6.5-10.7-10.1c0-0.6,0-2.7-0.6-4.2
	c1.4,0.7,3.5,1.9,3.5,3.4c0,2.3,5.4,0.6,5.4,0.6l-2.2-3.4c0,0,2.8,0.9,3.8,1.3c1,0.5,2.4,0.4,2.4,0.4s-4.3-3.9-6-4.3
	c-1.3-0.3-6.9-7.6-9.7-11.2l-1.2-4l-1.7-7c0,0-1.8,4.1-1.5,6.5c0.3,2.3-3.4,9-3.4,9s-4.2,4.2-6.4,4.7c-2.3,0.4-4.4,3.2-4.4,3.2
	s-2,1.8-3.1,1.5c-1.2-0.3-2.2,1.5,0.3,1c1.8-0.3,2.9-0.6,3.4-0.8c0,0.1,0,0.1,0.1,0.2l-2.2,2.9c0,0,1.4-0.1,2.9-1.5s2.4-2.1,2.4-2.1
	l-1.2,4.1c0,0,1.8-0.1,2.5-1.5c0.6-1.4,2.1-3.5,2.1-3.5l1.3,3.3l4-0.5c-0.1,0.9-0.3,1.3-0.3,1.3s-8,6.4-10.7,7.3l-6.1,2l-3.9,4.2
	c0,0-0.2,1.7,1.6,0.6l2-1.8c0,0-3,3.9-1.5,3.4c1.6-0.4,3.1-2.5,3.1-2.5l2.3-0.8l-0.1,0.1c-0.1,0.1-0.1,0.2-0.2,0.3l-1.7,3.7
	c0,0,2-0.4,3.1-2.2c1.1-1.7,2-2.1,2-2.1l0.7,0.6l-1.5,3.1c0,0,1.3-1.1,2.4-2.1c0.4-0.4,1.8-0.5,3.5-0.5c-0.8,1.1-2.3,2.3-2.2,4.2
	c-1-0.3-1,1.3-2.6,1.3c0,0-7.9,2.4-9.2,3.8c0,0-2.1-0.9-4.3-0.1c-2.3,0.8-0.6,2.1,0.8,2l-2.7,1.8c0,0-5,5.3-1.4,4.5l2.6-2.8
	c0,0-0.8,2.4,1.2,1l2.6-2.8l-1,4.4c0,0,1.8-0.8,1.7-2.1l1.5-2.8c0,0-0.2,5.8,0.4,4c0.6-1.7,1.5-3.8,1.5-3.8s0.3,3,1.5,2.3
	c1.1-0.7,0.6-2.4,0.6-2.4l2-1.4l1.7,3.3c0,0,0.8-2.4,1.7-3.1c0.9-0.7,1.8-0.8,1.8-0.8l0.6,0.8l-0.2,0.5c-2.6,0.8-3.5,3.7-3.5,3.7
	l0.1,0.7c-9,2.7-13.7,5.4-15.1,6.4c-2.2,1.5-5.5,5.7-5.5,5.7s-2.6,3.2-1,3.1c1.6-0.1,2.2-2.1,2.2-2.1l2.4-1.8l-1.6,4.8
	c0,0,2.9-2.8,3-4.2c0.2-1.4,2.2-2.1,2.2-2.1L492,233c0,0,0.4-0.4,1.5-1.8c1.1-1.4,1-3.8,1.7-3.8s2.5-0.8,2.5-0.8l-0.6,2.5
	c-0.1,0-0.3,0.1-0.5,0.2c-1.5,1.5-2.5,1.8-2.5,1.8s-0.8,1.4-1.5,2.1c1.1-1.2-3.7,1.3-4,3.6c-0.1,1.2-0.7-0.3-2.9,1.2
	c0,0-3.4,3.2-0.6,2.7l-2.4,3.2c0,0-5,7-3.2,6.9s3.1-3.5,3.1-3.5s-0.8,2.7,1,3s3.5-3.9,3.5-3.9l2.5-3.3c0,0.1,0,0.2,0,0.2
	c-0.4,1.4-1.4,5.7,0.1,5.3c1.8-0.4,0.7-5.1,2.7-5.9c2-0.8,4.2-2.6,4.2-2.6s-1.4,5.5-0.3,4.1s3.4-6.6,4.5-6.6
	c1.1-0.1-1.1,7.5,3.3,1.5c2.1-2.9,2.8-4.1,3-4.5l3.2,0.8c0.2,0.4,0.3,0.8,0.5,1.2l-2.3,1.4c0,0-0.6-0.2-0.7,1.3
	c-0.2,1.5-1.3,1.6-1.3,1.6s-0.3,1.2-0.8,2.1c0.8-1.3-2.6,1.7-3.6,2.5c-0.8,0.3-1.7,0.6-2.4,1c0,0-1.2,1.5-1.3,2.5
	c-0.5,0.4-0.9,0.7-1.3,1c-1.4,0.2-3.3,0.8-4.9,1.9l-4.2,5l-3.6,3.1c0,0-3.7,6.8,1.5,2.2l2.6-3.8l2,0.3l-3.2,3.8c0,0-4.1,5.7,1.9,0.6
	c1.8-1.6,3.3-4.1,3.3-4.1l2.3-1.2c-1.2,2.6-2.8,6.3-2.1,6.5c1.2,0.4,2.6-4.3,2.6-4.3s-1.1,3.8,0,4.6c1.1,0.8,1.7-4.6,1.7-4.6
	l0.6-0.5c0.4,0.5,0.8,1,1.1,1.4c0,1.4,0.1,3,0.8,2.9c1.2-0.1,1.8-6,3.2-6.6c0,0,0.1,0,0.1-0.1c0.3,1.6,0.6,3.2,1.2,4
	c-0.9,3.3-2.3,9-1.7,9.4c0.9,0.5,1.9-5.4,1.9-5.4s-0.7,4.8,0.1,5.9c0.8,1.1,2.1-6,2.1-6l1.6-5.6c0,0-1.2,6.7-0.3,6.6
	c0.9-0.1,1-4.2,2-4.9c1-0.7,0.7,0,0.7,0s-0.2,5.5,0.5,3.2c0.4-1.2,0.8-3.4,1.1-5l0.8,2.4l0.4-0.2c0.2,1.9,0.6,2.7,1.9-2.4
	c1-4.1,1.3-5.4,1.3-5.4l0.6-0.2l0.8,7.6c0,0,0,8.6,0.5,13.1s-2,23.7-2,23.7c0.6,0.3,1.2,0.5,1.8,0.7c0.2,0.8,0.8,1.9,2.9,1.3
	c0.5-0.1,0.8-0.4,1.1-0.8c2.4-0.5,2.6-2.8,2.6-2.8s-1.3-16.3-1.1-17.8c0.3-1.5-1.4-17.7-1.4-17.7l-0.1-2.7c1.7,3.1,0.3-5.1,0.9-5.1
	c0.7,0,2.7,7.5,3.5,9.5s-0.5-6.1-0.5-6.1s1.6,2.5,2.9,3.4c1.4,0.9,1.1,8.1,2.3,8.5c1.2,0.5-0.5-8.6-0.5-8.6l2,5c0,0,1.4,6,2.6,5.5
	c1.2-0.6,0.4-4.6,0.4-4.6s1.1,5,2.3,5c1.2-0.1-2.6-10-2.6-10l-1.8-4.5c1.8,0.4,1.4-4.5-0.2-6.4c-0.3-0.3-0.6-0.5-0.9-0.5
	c-0.1-0.4-0.2-0.7-0.2-0.7s2.3,1.6,4.4,2.2c2.1,0.6,1.4,5.3,3.2,5.6c1.8,0.3-0.5-5.7-0.5-5.7l2.9,3.2c0,0,2,4,3.8,3.5
	c1.8-0.4,0.8-3.1,0.8-3.1s1.5,3.3,3.3,3.2c1.8-0.1-3.7-6.6-3.7-6.6l-2.6-2.9c1,0.1,1.6-0.3,1.8-0.9c1.1,1.4,0.9,4.8,2.4,5
	c1.8,0.3-0.5-5.7-0.5-5.7l2.9,3.2c0,0,2,4,3.8,3.5c1.8-0.4,0.8-3.1,0.8-3.1s1.5,3.3,3.3,3.2C561,254,555.5,247.5,555.5,247.5z"/>
<path id="tree_1" fill-rule="evenodd" clip-rule="evenodd" fill="#FFFFFF" d="M562.6,252.3c0.8,0,1.5-1.5,1.5-1.5s-0.5,1.3,0.4,1.5
	c0.8,0.2,1.7-1.7,1.7-1.7l1.3-1.5c0,0-1,2.8-0.2,2.7c0.7-0.1,0.6-1.7,1.1-2.4c0.1,0.3,0.4,0.5,0.8,0.4l-1.2,1.4c0,0-2.5,3.1-1.7,3.1
	s1.5-1.5,1.5-1.5s-0.5,1.3,0.4,1.5c0.8,0.2,1.7-1.7,1.7-1.7l1.3-1.5c0,0-1,2.8-0.2,2.7s0.5-2.4,1.4-2.6c0.9-0.3,2-1,2-1
	s0,0.1-0.1,0.3c-0.1,0-0.3,0.1-0.4,0.2c-0.7,0.9-0.9,3.2-0.1,3l-0.8,2.1c0,0-1.7,4.7-1.2,4.7s1-2.3,1-2.3s-0.3,1.9,0.2,2.2
	c0.5,0.3,1.2-2.6,1.2-2.6l0.9-2.3c0,0-0.8,4.3-0.2,4.1c0.5-0.2,0.4-3.6,1-4s1.3-1.6,1.3-1.6s-0.6,3.8-0.2,2.9
	c0.4-0.9,1.2-4.5,1.6-4.5c0.3,0-0.4,3.9,0.4,2.4v1.3c0,0-0.8,7.6-0.6,8.3c0.1,0.7-0.5,8.4-0.5,8.4s0.1,1.1,1.2,1.3
	c0.1,0.2,0.3,0.3,0.5,0.4c1,0.3,1.2-0.2,1.3-0.6c0.3-0.1,0.5-0.2,0.8-0.3c0,0-1.2-9-0.9-11.2c0.2-2.1,0.2-6.2,0.2-6.2l0.3-3.6
	l0.3,0.1c0,0,0.1,0.6,0.6,2.5c0.6,2.4,0.8,2.1,0.9,1.2l0.2,0.1l0.4-1.1c0.2,0.8,0.3,1.8,0.5,2.4c0.3,1,0.2-1.5,0.2-1.5
	s-0.2-0.3,0.3,0c0.5,0.3,0.5,2.2,0.9,2.3c0.4,0.1-0.1-3.1-0.1-3.1l0.7,2.6c0,0,0.6,3.3,1,2.8s0.1-2.8,0.1-2.8s0.5,2.8,0.8,2.6
	c0.3-0.2-0.4-2.9-0.8-4.4c0.3-0.4,0.4-1.2,0.6-1.9c0,0,0,0,0.1,0c0.6,0.3,0.9,3.1,1.5,3.1c0.3,0,0.4-0.7,0.4-1.4
	c0.2-0.2,0.3-0.4,0.5-0.7l0.3,0.2c0,0,0.3,2.6,0.8,2.2s0-2.2,0-2.2s0.7,2.2,1.2,2c0.3-0.1-0.4-1.8-0.9-3.1l1,0.6
	c0,0,0.7,1.2,1.5,1.9c2.7,2.4,0.9-0.3,0.9-0.3l-1.5-1.8l0.9-0.1l1.2,1.8c2.4,2.2,0.7-1.1,0.7-1.1l-1.7-1.5l-1.9-2.4
	c-0.7-0.6-1.6-0.8-2.2-0.9c-0.2-0.1-0.4-0.3-0.6-0.5c0-0.5-0.6-1.2-0.6-1.2c-0.4-0.2-0.7-0.4-1.1-0.5c-0.4-0.4-2-1.8-1.6-1.2
	c-0.3-0.4-0.4-1-0.4-1s-0.5-0.1-0.6-0.8s-0.3-0.6-0.3-0.6l-1.1-0.7c0.1-0.2,0.1-0.4,0.2-0.6l1.5-0.4c0.1,0.2,0.4,0.7,1.4,2.1
	c2,2.8,1-0.8,1.5-0.7c0.5,0,1.6,2.5,2.1,3.1c0.5,0.7-0.1-1.9-0.1-1.9s1,0.8,1.9,1.2s0.4,2.6,1.2,2.8c0.7,0.2,0.2-1.9,0.1-2.5v-0.1
	l1.1,1.6c0,0,0.8,1.9,1.6,1.8c0.8-0.1,0.5-1.4,0.5-1.4s0.6,1.6,1.4,1.7c0.8,0-1.4-3.3-1.4-3.3l-1.1-1.5c1.2,0.2-0.3-1.3-0.3-1.3
	c-1-0.7-1.3,0-1.3-0.5c-0.1-1.1-2.3-2.3-1.8-1.7c-0.3-0.3-0.7-1-0.7-1s-0.4-0.1-1.1-0.9c-0.1-0.1-0.1-0.1-0.2-0.1l-0.3-1.2
	c0,0,0.8,0.4,1.1,0.4s0.3,1.1,0.8,1.8s0.7,0.8,0.7,0.8l-0.1-2.4c0,0,0.9,0.4,1,1s1.4,2,1.4,2l-0.7-2.3l1.1,0.9c0,0,0.3,1,1,1
	s-0.5-1.5-0.5-1.5s-1.5-2-2.5-2.7c-0.6-0.4-2.8-1.7-6.9-3v-0.3c0,0-0.4-1.4-1.6-1.8l-0.1-0.3l0.3-0.4c0,0,0.4,0,0.8,0.4
	c0.4,0.3,0.8,1.5,0.8,1.5l0.8-1.6l0.9,0.7c0,0-0.2,0.8,0.3,1.1s0.7-1.1,0.7-1.1s0.4,1,0.7,1.8s0.2-1.9,0.2-1.9l0.7,1.3
	c0,0.6,0.8,1,0.8,1l-0.4-2.1l1.2,1.3c0.9,0.7,0.5-0.5,0.5-0.5l1.2,1.3c1.6,0.4-0.6-2.1-0.6-2.1l-1.2-0.9c0.6,0,1.4-0.6,0.3-0.9
	c-1-0.4-2,0.1-2,0.1c-0.6-0.7-4.2-1.8-4.2-1.8c-0.7,0-0.7-0.8-1.2-0.6c0-0.9-0.6-1.4-1-2c0.8,0,1.4,0.1,1.6,0.2c0.5,0.5,1.1,1,1.1,1
	l-0.7-1.5l0.3-0.3c0,0,0.4,0.2,0.9,1s1.4,1,1.4,1l-0.8-1.7c0,0,0-0.1-0.1-0.2V227l1,0.4c0,0,0.7,1,1.4,1.2s-0.7-1.6-0.7-1.6l0.9,0.8
	c0.8,0.5,0.7-0.3,0.7-0.3l-1.8-2l-2.8-0.9c-1.2-0.4-4.9-3.4-4.9-3.4s-0.1-0.2-0.1-0.6l1.8,0.2l0.6-1.6c0,0,0.7,1,1,1.6
	c0.3,0.7,1.1,0.7,1.1,0.7l-0.5-1.9c0,0,0.4,0.3,1.1,1c0.7,0.7,1.3,0.7,1.3,0.7l-1-1.4c0,0,0,0,0-0.1c0.2,0.1,0.7,0.2,1.5,0.4
	c1.1,0.2,0.6-0.6,0.1-0.5s-1.4-0.7-1.4-0.7s-1-1.3-2-1.5s-2.9-2.2-2.9-2.2s-1.7-3.1-1.6-4.2c0.1-1.1-0.7-3.1-0.7-3.1l-0.7,3.3
	l-0.6,1.9c-1.2,1.7-3.8,5.1-4.4,5.3c-0.8,0.2-2.7,2-2.7,2s0.6,0,1.1-0.2s1.7-0.6,1.7-0.6l-1,1.6c0,0,2.4,0.8,2.5-0.3
	c0-0.7,1-1.3,1.6-1.6c-0.2,0.7-0.3,1.7-0.3,2c-1.4,1.7-3.9,4.5-4.8,4.8c-1.4,0.4-3.4,1.7-3.4,1.7l-0.7,1.7c0,0,0.6,0.5,1.6-0.6
	l0.8-0.9l0,0l-1.1,2.2c0,0,0.8-0.1,1.2-0.7c0.3-0.6,0.8-0.9,0.8-0.9v1.3l0.9-0.6l0.6-1.2l0.6,0.5l1.4-1.2c0,0.1,0.1,0.1,0.1,0.1
	l-0.5,1.4c-0.6,0.2-1.2,0.4-1.5,0.7c-1.1,1.1-2.6,3.4-2.6,3.4s-2.8,2.6-3.6,3s0.4,1.3,1.3,0.1l1.3-1.2c0,0-1,1.5-0.6,1.6
	c0.4,0,1.3-1.7,1.3-1.7l1.5-1c0,0-0.7,2.2-0.3,1.9s1.1-2,1.1-2l0.6-0.4c-0.3,1-0.5,1.8-0.3,1.9c0.2,0.1,0.4-0.4,0.6-1
	c0,0.8,0,1.7,0.3,1.2l0,0c0.3,0.6,1.2-2.7,1.2-2.7l0.3-0.9l0.3-0.2c0,0,0,0,0,0.1c-0.1,0.8-0.2,1.6,0,1.5h0.1c0,0.4,0.1,0.7,0.2,0.3
	c0.2-0.8,0.7-1.2,0.7-1.2l-0.2-0.9l0,0l0.6,1.9c0,0,0.4-0.6,0.4-1.4c0-0.1,0.1-0.3,0.1-0.4c0.1,0.6,0.1,1.2-0.2,2l-1.4,1.5l-2.7,1.7
	l-2.1,1.3c0,0,1.6-0.5,3.2-1.1c-0.3,0.4-0.5,0.7-0.7,1c-0.5,0.9-3.8,1.5-3.8,1.5s-2.1,1.3-3.4,2.2c-1.3,0.9-1.6,1.6-1.6,1.6l2.1-0.9
	l1.9-1.6v1l2.1-1.3c-1,1.1-0.7,2.4,0.3,1c0.2-0.3,0.6-0.5,1-0.6c-0.1,0.5-0.2,1.1-0.1,1.5l-0.7,0.3c0,0-0.3,0.6-0.4,1.1
	c0,0.5-0.8,0.2-0.8,0.2s-1.3,0.2-1.6,0.5c0.6-0.5-1,0.6-1.9,1.2c-0.4,0.2-0.1,0.3-1.2,0.9c0,0-2.6,1.9-1.1,1.8l-0.3,0.5
	C564.3,249.2,561.7,252.2,562.6,252.3z"/>
<g id="fan_base">
	<polygon fill="#FFFFFF" points="122.2,637.9 112.3,446.1 96.1,446.1 85.1,637.9 	"/>
</g>
<g id="fan_blade">
	<g>
		<path fill="#FFFFFF" d="M111.1,413.9c0,0-13.5-44.6,0.1-89.2c0,0-20.5,40-15.2,89.8C96,414.4,103.4,408.8,111.1,413.9z"/>
	</g>
	<g>
		<path fill="#FFFFFF" d="M117.3,422.7c0,0,2.3,8.5-5.9,14.3c0,0,45.4,5.7,79.3,36.6C190.6,473.5,163.8,438.1,117.3,422.7z"/>
	</g>
	<g>
		<path fill="#FFFFFF" d="M90.4,424.7c0,0-31.2,30.3-77.7,36.6c0,0,46.4,1.6,86.7-23.5C99.4,437.9,90.5,435.7,90.4,424.7z"/>
	</g>
	<g>
		
			<ellipse transform="matrix(0.9993 -3.661517e-02 3.661517e-02 0.9993 -15.5059 4.0931)" fill="#FFFFFF" cx="104" cy="425.4" rx="10.4" ry="10.6"/>
	</g>
</g>
<path id="blue_ocean" fill="#08AFE6" d="M634.5,287.4c-264.2,84.7-370.2,348.1-370.2,348.1l296.9-0.3c39-1.9,73.4-37,74.4-74.4
	L634.5,287.4z"/>
<path id="dark_green_swoosh" fill="#21532E" d="M74.5,634.6l103.4-0.1C373,311.6,636.1,257.6,636.1,257.6
	C310.5,336.2,74.5,634.6,74.5,634.6z"/>
<path id="light_green_swoosh" fill="#5F9B4B" d="M173.7,634.9c19.9-37.4,169.4-290.6,460.9-378.8v32.3c0,0-235.7,61.6-367.1,346.5
	H173.7z"/>
<path id="oil_derrick" fill="#FFFFFF" d="M246.7,332c1.5-0.1,2.7-0.2,3.8-0.3c0.2-0.2,0.4-0.3,0.4-0.5c0.6-8.5,3.7-16.2,7.6-23.6
	c2.2-4.2,4.5-8.2,6.9-12.3c2-3.4,4.6-4.3,8.4-3c3,1,5.9,2.3,9,3.3c1.8,0.6,2.6,2.1,3.4,3.5c0.3,0.6,0,1.6-0.3,2.3
	c-1.9,5.2-3.9,10.3-6,15.7c0.6,0.3,1.1,0.7,1.7,0.9c25.3,9.3,50.7,18.6,76,27.8c0.8,0.3,1.6,0.7,2.6,0.2c0.7-0.3,1.6-0.1,2.6-0.2
	c0,1.7,0.9,2.4,2.3,2.8c2.7,0.8,5.3,1.9,8,2.9c0.3-0.6,0.6-1.1,0.9-1.5c1-1.7,1.7-2,3.7-1.3c1.4,0.5,2.8,1.1,4.2,1.7
	c2,0.9,2.4,1.7,1.6,3.7c-1.6,4.2-3.3,8.3-5.1,12.5c-0.8,2-1.7,2.3-3.8,1.6c-1.1-0.4-2.1-0.9-3.1-1.3c-2-0.6-3.4-1.6-3.2-4
	c-2.1-0.5-8.8-3.3-11.2-4.2c-11.2-4-22.3-8.2-33.5-12.3c-0.9-0.3-1.9-0.6-3.2-1.1c0,2.1,0.2,4-0.1,5.8c-0.4,2.8,0.3,5.3,1.1,7.9
	c5.1,16.9,6.7,22.3,11.7,39.1c-1.5,1.1-4,2.8-4,2.8c-8.3-3.8-17.2-7.9-25.4-11.7c-0.1-0.1-0.4,0-0.8,0c-2.2,7.7-7.9,30.9-10.2,38.7
	c0,0-5.8,4.4-7.4,5.8c0.7-2.4,7.2-25.7,7.9-27.9c4.9-17.2,9.9-34.4,14.8-51.6c0.5-1.6,0.6-3.3,0.7-5c0.1-2.7,0-5.4,0-8.4
	c-11-4.1-21.9-8.1-33.1-12.2c-3.5,9.2-7,18.2-10.4,27.3c-2.6,0.1-5-0.4-7.2-1.4c-1.1-0.6-2.1-1.9-2.6-3.2c-1.2-3.4-2.1-7-3-10.5
	c-0.4-1.6-0.5-3.3-0.7-5c-0.1-1-0.3-2-1.7-1.6c-0.6,1.9-0.8,106.5-0.3,111.4c0.8,0.1,1.7,0.3,2.8,0.5c0,6.3,0,6.6,0,13.3
	c-3.1,2.3-7.3,6-7.3,6c0-6.4,0-12.7,0-19.2c0.7-0.1,1.5-0.3,2.3-0.5c0.1-0.3,0.3-2.3,0.3-2.6c0-3.5,0-57,0-60.4
	c0-14.8,0-29.6,0-44.4c0-1.7,0.3-3.5-1-5C246.6,333.2,246.7,332.7,246.7,332z M303.9,386.4c7.9,3.4,15.7,6.8,24.2,10.4
	c-2.4-7.7-4.5-14.7-6.7-21.9c-4.4,1.7-8.4,3.4-12.5,4.6c-3.2,0.9-4.7,2.7-5,5.8C303.9,385.6,303.9,385.8,303.9,386.4z M320.3,371.4
	c-1.2-4.1-2.4-7.9-3.5-11.6c-0.5-1.7-1-3.4-1.6-5.1c-0.2-0.4-0.8-0.9-1.2-0.9c-0.4,0-0.9,0.4-1.2,0.8c-0.3,0.3-0.3,0.9-0.4,1.3
	c-1.8,6.3-3.6,12.5-5.4,18.8c-0.2,0.7-0.3,1.4-0.5,2.3c0.8-0.2,1.2-0.3,1.6-0.5C312,374.9,316,373.2,320.3,371.4z"/>
<g id="r_wave_2">
	<path fill="#FFFFFF" d="M627.1,578.2c0,0-16.1-13.1-48.9-17.1l0,0c-0.6,2,0.9,4,3,4C588.3,565,604,566.4,627.1,578.2z"/>
</g>
<g id="r_wave_1">
	<path fill="#FFFFFF" d="M617.3,585.5c-13.1-3.4-16.4-6.8-32.7-7.3c-0.8,0-1.5-0.7-1.6-1.5l0,0c-0.1-1,0.8-1.8,1.8-1.7
		C601.3,577.1,602.3,577.8,617.3,585.5z"/>
</g>
<g id="l_wave_2">
	<path fill="#FFFFFF" d="M339.8,589.5L339.8,589.5c0-1.5-1.1-2.3-1.9-1.5c-3.9,3.6-13.9,9.8-30.8,3c0,0,5.5,7.3,25.6,5.5
		c1-0.1,5.1-1.2,7.9-2.4c4.4-1.9,19.4-8,46.7-0.1C387.2,594,369.8,583.1,339.8,589.5z"/>
</g>
<g id="l_wave_1">
	<path fill="#FFFFFF" d="M379,578.9c-13.6-0.9-17.4-3.6-33.5-1c-0.8,0.1-1.6-0.4-1.8-1.2l0,0c-0.3-1,0.5-2,1.5-2
		C361.7,573.8,362.9,574.2,379,578.9z"/>
</g>
<g id="b_wave_2">
	<path fill="#FFFFFF" d="M391.4,595.1c0,0,25.7,10.8,69.7,3.6v-0.5c0-2.6-2.5-4.4-5-3.6C447.3,597.4,426.3,601.7,391.4,595.1z"/>
</g>
<g id="b_wave_1">
	<path fill="#FFFFFF" d="M484.7,604c-21.1,2.8-25.9,9.6-58.6,5c0,0,15,6.8,45.6,2.1c23.1-3.5,33.7-9.4,73.4-1.3
		C545.1,609.8,522.9,599,484.7,604z"/>
</g>
<path id="derrick" fill="#FFFFFF" d="M568.4,539.5c-0.1,13.9,0,27.9-0.1,41.8c0,2.8,0.5,3.9,3.7,4.4c14.8,2.1,27,6.4,40.1,13.6
	c0.4,0.2-4-0.5-3.3,0c-6.2-1.8-5.8-1.7-11.6-3.3c-17.9-4.9-36.2-6.5-54.7-5.2c-14.2,1-28.3,2.5-42.5,3.8c-3.5,0.3-6.9,0.8-10.5,0.8
	c4.4-1.2,8.8-2.7,13.2-3.5c14.1-2.5,28.2-4.8,42.3-7.1c3.7-0.6,1.6-3.1,2.2-5.8c-24.8,1.7-49.1,3.4-73.5,5.1v5.8
	c6.7-0.9,13.1-1.8,19.5-2.6c0,0.2,0.1,0.4,0.1,0.6c-13.5,3-27,5.9-41,9V586c-4.2,0.3-34.7,9.9-81.8-5.6c3.3,0.4,61.8,11.7,81.7-2.7
	c-0.1-6.4,0-12.9-0.1-19.3c0-1.1-0.5-2.6-1.3-3.3c-3.7-3.4-7.6-6.7-11.7-10.2c-4.1,3.5-8.3,7-12.3,10.6c-0.6,0.5-0.6,1.8-0.7,2.7
	c-0.1,5.7,0,11.3,0,17l0,0c0,2.8-2.3,5.1-5.1,5.1h-0.1c-8.8-0.1-15.9-7.2-15.9-16v-20.9c0,0,0-7.8,0-9.3l-11.9-5.7
	c0,0-21.1-0.3-23.6-0.1c-0.1,0-0.3-0.1-0.3-0.2l0,0c0-4,3.2-7.2,7.2-7.2h3.3l0,0c0.3-3.2,3-5.6,6.1-5.6h37.5v-3.4H405
	c-0.5-3-0.5-2.8,2.2-2.9c1.1,0,2.3,0,3.4,0.1c4.4,0.4,8.3-0.4,11.4-4.1c0.7-0.8,2.4-1.2,3.7-1.2c5.3-0.1,10.7-0.1,16.2-0.1l48.7-0.3
	c0-2.4,3.1-22.4,3.7-25.9c1.4-8.6,2.5-17.1,3.8-26c-1.5-0.1-2.9-0.2-4.2-0.3c0-0.2,0-0.3,0-0.5c1.4-0.1,2.7-0.3,4.3-0.4
	c0.8-5.2,1.6-10.4,2.2-15.6c0.1-0.8-0.9-1.6-1.1-2c0.6-1,1.5-1.9,1.7-3c0.9-5.2,1.6-10.5,2.4-16c-1.4-0.2-2.4-0.3-3.7-0.4
	c1.4-0.4,3-0.5,3.7-1.3s0.6-2.4,0.7-3.6c0.6-4.4,1.3-8.8,2-13.6h-8.9l-0.2-3.5h15v-4.6h-14.8l-0.3-3.1h10.9l0.9-2.8h11.4
	c-0.2,2.5,1.3,2.8,3.3,2.7c1.8-0.1,3.7,0,5.6-0.1c2.1-0.1,2.9,0.7,2.1,3.2c-3.7,0-7.6,0-11.4,0c-4,0-4.1,0.1-3.4,4.4h14.9v3.6h-7.9
	c0.2,2.2,0.4,4.1,0.6,6c0.9,6.1,2,12.1,2.6,18.2c0.3,3.3,1,5.6,5,5c-1.3,0.2-2.5,0.3-4.1,0.5c0.8,6.1,1.6,12.1,2.5,18
	c2.3,15.9,4.6,31.8,6.8,47.7c0,0.1,0,0.2,0,0.3c0.3,2.1,0.1,4.7,1.2,6.2c0.9,1.3,3.5,1.4,5.7,2.1c-2,0.1-3.7,0.2-5.5,0.3
	c0.5,3.4,0.8,6.6,1.4,9.7c0.1,0.6,1.4,1.5,2.2,1.5c4.9,0.2,9.8,0.1,14.6,0.4c1.7,0.1,3.7,0.7,4.9,1.8c2.4,2.2,4.8,3.2,8.1,3
	c2.4-0.1,4.8,0,7.4,0.2c1.8,0.1,3.2,1.5,3.3,3.3l0,0h-42.1c-1.1,3.5-0.8,4,2.7,4c15.6,0,31.2-0.1,46.8-0.1l0,0c2,0,3.7,1.6,3.7,3.7
	v3.9c0,2-1.6,3.5-3.5,3.5h-8.7 M499.4,577.1c0-6.5,0-12.8,0-19.2c0-0.6-0.2-1.4-0.7-1.8c-4.1-3.6-8.2-7.1-12.3-10.7
	c-3.8,3.3-7.3,6.4-10.9,9.3c-1.5,1.2-2.2,2.5-2.1,4.4c0.1,5.6,0,11.3,0,16.9c0,0.9,0.2,1.8,0.2,2.9
	C482.3,578.4,490.6,577.7,499.4,577.1z M534.4,545.4c-3.5,3-6.6,5.9-10,8.5c-2.6,2-3.9,4.2-3.6,7.6c0.3,4.6,0.1,9.3,0.1,14.1
	c9-0.5,17.5-0.9,26.2-1.4c0-5.7,0-11.2-0.1-16.6c0-0.8-0.5-1.7-1.1-2.2C542.2,552.1,538.4,548.9,534.4,545.4z M528,446.3
	c-4.2,0-7.9,0-11.6,0c-0.9,3.9-0.8,4.2,3,4.2c1.4,0,2.7,0,4.1,0c0,0.3,0,0.6,0,0.8c-2.4,0-4.7,0-7.3,0c0,3.9,0,7.5,0,11.5
	c3.7,0,7.2,0,10.8,0c0,0.3,0,0.5,0,0.8c-3.6,0-7.2,0-10.7,0c0,4.1,0,7.9,0,11.6c5.2,0,10.1,0,15.4,0
	C530.4,465.6,529.2,456.1,528,446.3z M534.2,497.7c-0.8-6.6-1.4-12.8-2.2-19c-0.1-0.8-1-2.2-1.6-2.2c-4.7-0.2-9.5-0.1-14.3-0.1
	c0,3.8,0,7.3,0,10.8c2,0.1,3.8,0.2,5.5,0.3c0,0.2,0,0.4,0,0.6c-1.8,0.1-3.7,0.2-5.6,0.3c0,3.2,0,6.2,0,9.3
	C522.2,497.7,528.1,497.7,534.2,497.7z M496.3,487.2c5.5,0,10.5,0,15.7,0c0-3.6,0-7.1,0-11c-3.5,0-6.7,0-10,0c0-0.3,0-0.5,0-0.8
	c3.3,0,6.6,0,10,0c0-4.1,0-7.8,0-11.6c-4.3,0-8.5,0-12.9,0C498.2,471.6,497.3,479.3,496.3,487.2z M496.2,488.4
	c-0.6,5.2-1.2,10.4-1.8,15.6c6.2,0,11.9,0,17.7,0c0-5.3,0-10.4,0-15.6C506.7,488.4,501.6,488.4,496.2,488.4z M493.9,507.1
	c-0.2,1.7-0.5,3.4-0.5,5c0.1,2.6,1.8,4.2,4.4,4.2c4.1,0,8.2,0,12.3,0c2.5,0,5,0,7.5,0c0.2,2.4,0.3,4.3,0.5,6.4
	c2.9,0,5.5,0.1,8.2-0.1c0.6,0,1.6-0.9,1.7-1.4c0.2-2.5,0.1-5,0.1-7.8c-9.4,0-18.5,0-27.7,0c0-1.3,0-2.2,0-3.5c4.1,0,8,0,12.2,0
	c-0.1-1.2-0.2-2-0.2-2.9C505.9,507.1,500,507.1,493.9,507.1z M527.9,445.3c-0.8-6.5-1.4-12.5-2.3-18.6c-0.1-0.9-1-2.5-1.6-2.5
	c-2.6-0.1-5.3,0.2-7.9,0.5c-0.1,0-0.2,0.5-0.2,0.8c0,2.1,0,4.2,0,6.7c3.2,0,6.1,0,8.9,0c-2.3,0.7-4.6,0.6-6.9,0.7
	c-0.7,0-1.9,0.7-1.9,1.1c-0.1,3.7-0.1,7.5-0.1,11.3C520.1,445.3,523.8,445.3,527.9,445.3z M452,543.4l-0.2-9.5
	c-3.8,3.3-7.3,6.2-11,9.4c3.6,3.2,7.1,6.2,11.1,9.7C452,549.4,452,546.6,452,543.4z M546.4,552.5c0.3-0.1,0.6-0.3,0.9-0.4
	c0-2.8-0.3-15.8-0.6-17.4c-3.7,3.1-7,6-10.5,9C539.8,546.8,543.1,549.6,546.4,552.5z M499.2,534.3c-3.8,3.3-7.2,6.2-10.8,9.4
	c3.7,3.2,7.1,6.2,11.2,9.7C499.5,549.5,499.3,536,499.2,534.3z M473.3,530.6c3,2.6,5.4,4.8,7.9,6.9c5.1,4.4,5.1,4.4,10.2,0.1
	c2.6-2.2,5.1-4.4,8.2-7C490.5,530.6,482.3,530.6,473.3,530.6z M512,432c0-2.8,0-5.3,0-8.1c-2.3,0-4.4,0-6.5,0c0-0.2,0-0.5,0-0.7
	c2.2,0,4.3,0,6.4,0c0-3.4,0-6.5,0-9.7c-1.9,0-3.5-0.1-5.1,0.1c-0.6,0.1-1.5,0.7-1.6,1.2c-0.8,5.7-1.5,11.4-2.2,17.3
	C506.3,432,509,432,512,432z M451.8,530.6c-8.8,0-16.7,0-25.5,0c4.6,4,8.5,7.4,12.6,11C443.1,538.1,447.2,534.6,451.8,530.6z
	 M512.1,451.6c-3.9,0-7.7,0-11.5,0c-0.5,3.7-0.9,7.3-1.3,11c4.4,0,8.5,0,12.8,0C512.1,458.9,512.1,455.4,512.1,451.6z M516.2,394.8
	c0,6.1,0,12,0,17.8c2.7,0,5.1,0,7.7,0c-0.6-4.9-1.4-9.6-1.7-14.4c-0.2-2.9-1.1-4.1-4-3.6C517.6,394.8,517.1,394.8,516.2,394.8z
	 M512,445.3c0-4.2,0-8.2,0-12.3c-3.1,0-6,0-9.1,0c-0.5,4.2-1,8.1-1.5,12.3C505.3,445.3,508.6,445.3,512,445.3z M521.1,534
	c0,6.7,0,12.8,0,19.5c4-3.5,7.5-6.6,11.3-9.8C528.6,540.4,525.1,537.4,521.1,534z M507.6,394.9c-0.7,6-1.4,11.8-2.1,17.8
	c2.4,0,4.5,0,6.6,0c0-6,0-11.8,0-17.8C510.6,394.9,509.3,394.9,507.6,394.9z M473.6,553.1c4-3.5,7.3-6.4,10.9-9.5
	c-3.8-3.2-7.1-6-10.9-9.2C473.6,540.8,473.6,546.6,473.6,553.1z M516.1,498.9c0,1.9,0,3.4,0,5c6.3,0,12.5,0,18.9,0
	c-0.3-1.8-0.5-3.4-0.7-5C528.1,498.9,522.3,498.9,516.1,498.9z M426.2,552.6c4-3.5,7.3-6.4,10.8-9.4c-3.7-3.1-7-5.9-10.8-9.2
	C426.2,540.5,426.2,546.1,426.2,552.6z M525.2,423.2c-0.3-2.9-0.6-5.6-1-8.3c-0.1-0.5-0.9-1.3-1.5-1.3c-1.7-0.2-3.5-0.2-5.2,0
	c-0.5,0.1-1.4,0.9-1.4,1.4c-0.1,2.7-0.1,5.4-0.1,8.2C519.2,423.2,522,423.2,525.2,423.2z M525.2,534.1c3.2,2.8,5.8,5,8.5,7.2
	c0.3,0.3,1.2,0.3,1.5,0c2.6-2.2,5.2-4.5,8.3-7.2C537.1,534.1,531.6,534.1,525.2,534.1z M516.1,510c6.6,0,13,0,19.6,0
	c-0.1-1-0.2-1.9-0.2-2.8c-6.5,0-12.9,0-19.3,0C516.1,508.2,516.1,508.9,516.1,510z M512.1,446.2c-2.7,0-5.1,0-7.5,0
	c-3.7,0-3.8,0.1-3.3,4.1c3.6,0,7.2,0,10.8,0C512.1,448.9,512.1,447.7,512.1,446.2z"/>
<path id="logo_border" fill="none" stroke="#FFFFFF" stroke-width="4" stroke-miterlimit="10" d="M555.2,635.8H84
	c-44.4,0-80.7-36.3-80.7-80.7V83.9C3.3,39.5,39.6,3.2,84,3.2h471.2c44.4,0,80.7,36.3,80.7,80.7v471.2
	C635.9,599.4,599.6,635.8,555.2,635.8z"/>
<g enable-background="new    ">
	<path fill="#FFFFFF" d="M573.3,604.3v1.3h-2.4v6.4h-1.5v-6.4h-2.4v-1.3H573.3z M581.5,612l-0.3-4.5c0-0.6,0-1.3-0.1-2.1h-0.1
		c-0.2,0.7-0.4,1.6-0.6,2.3l-1.4,4.2h-1.6l-1.4-4.3c-0.1-0.6-0.4-1.5-0.5-2.2h-0.1c0,0.7,0,1.4-0.1,2.1l-0.3,4.5h-1.5l0.6-7.6h2.3
		l1.3,3.7c0.2,0.6,0.3,1.1,0.5,1.9h0c0.2-0.7,0.4-1.3,0.5-1.9l1.3-3.8h2.2l0.6,7.6H581.5z"/>
</g>
<g enable-background="new    ">
	<path fill="#262262" d="M32,140.9c0-3.7,1-6.6,3-8.7c2-2.1,4.5-3.1,7.7-3.1c2,0,3.9,0.5,5.5,1.5c1.6,1,2.9,2.3,3.8,4.1
		c0.9,1.8,1.3,3.7,1.3,6c0,2.3-0.5,4.3-1.4,6s-2.2,3.1-3.9,4s-3.5,1.4-5.4,1.4c-2.1,0-4-0.5-5.6-1.5c-1.6-1-2.9-2.4-3.7-4.1
		S32,142.8,32,140.9z M35.1,140.9c0,2.7,0.7,4.8,2.2,6.3c1.4,1.5,3.2,2.3,5.4,2.3c2.2,0,4-0.8,5.5-2.3c1.4-1.6,2.1-3.8,2.1-6.6
		c0-1.8-0.3-3.4-0.9-4.7c-0.6-1.3-1.5-2.4-2.7-3.1c-1.2-0.7-2.5-1.1-4-1.1c-2.1,0-3.9,0.7-5.4,2.1C35.8,135.2,35.1,137.6,35.1,140.9
		z"/>
	<path fill="#262262" d="M57.3,151.7v-14h-2.4v-2.1h2.4v-1.7c0-1.1,0.1-1.9,0.3-2.4c0.3-0.7,0.7-1.3,1.4-1.7
		c0.7-0.4,1.6-0.7,2.8-0.7c0.8,0,1.6,0.1,2.5,0.3l-0.4,2.4c-0.6-0.1-1.1-0.2-1.6-0.2c-0.8,0-1.4,0.2-1.8,0.5c-0.3,0.4-0.5,1-0.5,2
		v1.5h3.1v2.1H60v14H57.3z"/>
	<path fill="#262262" d="M65.4,151.7v-14H63v-2.1h2.4v-1.7c0-1.1,0.1-1.9,0.3-2.4c0.3-0.7,0.7-1.3,1.4-1.7c0.7-0.4,1.6-0.7,2.8-0.7
		c0.8,0,1.6,0.1,2.5,0.3l-0.4,2.4c-0.6-0.1-1.1-0.2-1.6-0.2c-0.8,0-1.4,0.2-1.8,0.5c-0.3,0.4-0.5,1-0.5,2v1.5h3.1v2.1h-3.1v14H65.4z
		"/>
	<path fill="#262262" d="M73.4,132.6v-3.1h2.7v3.1H73.4z M73.4,151.7v-16.1h2.7v16.1H73.4z"/>
	<path fill="#262262" d="M90.7,145.8l2.7,0.3c-0.3,1.8-1,3.3-2.2,4.3c-1.2,1-2.7,1.6-4.4,1.6c-2.2,0-4-0.7-5.3-2.2
		c-1.3-1.4-2-3.5-2-6.2c0-1.7,0.3-3.3,0.9-4.6s1.5-2.3,2.6-2.9c1.2-0.7,2.5-1,3.8-1c1.7,0,3.2,0.4,4.3,1.3c1.1,0.9,1.8,2.1,2.1,3.8
		l-2.6,0.4c-0.3-1.1-0.7-1.9-1.3-2.4c-0.6-0.5-1.4-0.8-2.3-0.8c-1.4,0-2.5,0.5-3.3,1.5c-0.9,1-1.3,2.5-1.3,4.7
		c0,2.2,0.4,3.7,1.2,4.7c0.8,1,1.9,1.5,3.2,1.5c1.1,0,2-0.3,2.7-1C90.1,148.2,90.5,147.2,90.7,145.8z"/>
	<path fill="#262262" d="M106.7,146.5l2.8,0.3c-0.4,1.6-1.3,2.9-2.5,3.8c-1.2,0.9-2.7,1.4-4.6,1.4c-2.4,0-4.2-0.7-5.6-2.2
		c-1.4-1.4-2.1-3.5-2.1-6.1c0-2.7,0.7-4.8,2.1-6.3s3.2-2.2,5.4-2.2c2.1,0,3.9,0.7,5.3,2.2c1.4,1.5,2,3.5,2,6.2c0,0.2,0,0.4,0,0.7
		h-12c0.1,1.8,0.6,3.1,1.5,4.1c0.9,0.9,2,1.4,3.4,1.4c1,0,1.9-0.3,2.6-0.8C105.8,148.5,106.3,147.7,106.7,146.5z M97.8,142.1h9
		c-0.1-1.4-0.5-2.4-1-3c-0.9-1-2-1.6-3.4-1.6c-1.3,0-2.3,0.4-3.2,1.3C98.4,139.6,97.9,140.7,97.8,142.1z"/>
	<path fill="#262262" d="M120.6,143.7c0-3,0.8-5.2,2.5-6.6c1.4-1.2,3.1-1.8,5.1-1.8c2.2,0,4,0.7,5.4,2.2c1.4,1.4,2.1,3.4,2.1,6
		c0,2.1-0.3,3.7-0.9,4.9c-0.6,1.2-1.5,2.1-2.7,2.8c-1.2,0.7-2.5,1-3.9,1c-2.3,0-4.1-0.7-5.5-2.2
		C121.3,148.4,120.6,146.4,120.6,143.7z M123.4,143.7c0,2.1,0.4,3.6,1.3,4.6c0.9,1,2,1.5,3.4,1.5c1.4,0,2.5-0.5,3.4-1.5
		c0.9-1,1.3-2.6,1.3-4.7c0-2-0.5-3.5-1.4-4.5c-0.9-1-2-1.5-3.4-1.5c-1.4,0-2.5,0.5-3.4,1.5C123.8,140.1,123.4,141.6,123.4,143.7z"/>
	<path fill="#262262" d="M139.5,151.7v-14h-2.4v-2.1h2.4v-1.7c0-1.1,0.1-1.9,0.3-2.4c0.3-0.7,0.7-1.3,1.4-1.7
		c0.7-0.4,1.6-0.7,2.8-0.7c0.8,0,1.6,0.1,2.5,0.3l-0.4,2.4c-0.6-0.1-1.1-0.2-1.6-0.2c-0.8,0-1.4,0.2-1.8,0.5c-0.3,0.4-0.5,1-0.5,2
		v1.5h3.1v2.1h-3.1v14H139.5z"/>
	<path fill="#262262" d="M156.4,151.7v-22.2h3l11.7,17.4v-17.4h2.8v22.2h-3l-11.7-17.4v17.4H156.4z"/>
	<path fill="#262262" d="M188.9,149.7c-1,0.9-2,1.5-2.9,1.8c-0.9,0.4-1.9,0.5-3,0.5c-1.8,0-3.1-0.4-4.1-1.3c-0.9-0.9-1.4-2-1.4-3.3
		c0-0.8,0.2-1.5,0.5-2.2c0.4-0.7,0.8-1.2,1.4-1.6c0.6-0.4,1.2-0.7,2-0.9c0.5-0.1,1.3-0.3,2.4-0.4c2.2-0.3,3.8-0.6,4.9-0.9
		c0-0.4,0-0.6,0-0.7c0-1.1-0.3-1.9-0.8-2.3c-0.7-0.6-1.7-0.9-3.1-0.9c-1.3,0-2.2,0.2-2.8,0.7c-0.6,0.4-1.1,1.2-1.4,2.4l-2.7-0.4
		c0.2-1.1,0.6-2.1,1.2-2.8c0.6-0.7,1.4-1.2,2.4-1.6c1-0.4,2.3-0.6,3.6-0.6c1.4,0,2.5,0.2,3.3,0.5c0.9,0.3,1.5,0.7,1.9,1.2
		c0.4,0.5,0.7,1.1,0.8,1.9c0.1,0.5,0.1,1.3,0.1,2.5v3.6c0,2.5,0.1,4.1,0.2,4.8c0.1,0.7,0.3,1.3,0.7,1.9h-2.8
		C189.2,151.1,189,150.5,188.9,149.7z M188.7,143.6c-1,0.4-2.5,0.7-4.5,1c-1.1,0.2-1.9,0.3-2.4,0.5c-0.5,0.2-0.8,0.5-1.1,0.9
		c-0.3,0.4-0.4,0.8-0.4,1.3c0,0.7,0.3,1.3,0.8,1.8c0.5,0.5,1.4,0.7,2.4,0.7c1,0,2-0.2,2.8-0.7c0.8-0.5,1.4-1.1,1.8-1.9
		c0.3-0.6,0.4-1.5,0.4-2.7V143.6z"/>
	<path fill="#262262" d="M201.6,149.3l0.4,2.4c-0.8,0.2-1.5,0.2-2.1,0.2c-1,0-1.8-0.2-2.3-0.5c-0.5-0.3-0.9-0.7-1.2-1.2
		c-0.2-0.5-0.3-1.6-0.3-3.2v-9.2h-2v-2.1h2v-4l2.7-1.6v5.6h2.7v2.1h-2.7v9.4c0,0.8,0,1.3,0.1,1.5c0.1,0.2,0.3,0.4,0.5,0.5
		c0.2,0.1,0.5,0.2,0.9,0.2C200.7,149.4,201.1,149.3,201.6,149.3z"/>
	<path fill="#262262" d="M214.8,151.7v-2.4c-1.3,1.8-3,2.7-5.1,2.7c-0.9,0-1.8-0.2-2.7-0.5c-0.8-0.4-1.4-0.8-1.8-1.4
		c-0.4-0.5-0.7-1.2-0.8-2c-0.1-0.5-0.2-1.4-0.2-2.5v-10h2.7v8.9c0,1.4,0.1,2.4,0.2,2.9c0.2,0.7,0.5,1.3,1.1,1.7
		c0.6,0.4,1.2,0.6,2.1,0.6s1.6-0.2,2.3-0.6c0.7-0.4,1.2-1,1.5-1.7c0.3-0.7,0.4-1.8,0.4-3.1v-8.6h2.7v16.1H214.8z"/>
	<path fill="#262262" d="M221.5,151.7v-16.1h2.5v2.4c0.6-1.1,1.2-1.9,1.7-2.3c0.5-0.4,1.1-0.5,1.7-0.5c0.9,0,1.9,0.3,2.8,0.9
		l-0.9,2.5c-0.7-0.4-1.3-0.6-2-0.6c-0.6,0-1.1,0.2-1.6,0.5c-0.5,0.4-0.8,0.9-1,1.5c-0.3,1-0.5,2-0.5,3.2v8.4H221.5z"/>
	<path fill="#262262" d="M242.4,149.7c-1,0.9-2,1.5-2.9,1.8c-0.9,0.4-1.9,0.5-3,0.5c-1.8,0-3.1-0.4-4.1-1.3c-0.9-0.9-1.4-2-1.4-3.3
		c0-0.8,0.2-1.5,0.5-2.2c0.4-0.7,0.8-1.2,1.4-1.6c0.6-0.4,1.2-0.7,2-0.9c0.5-0.1,1.3-0.3,2.4-0.4c2.2-0.3,3.8-0.6,4.9-0.9
		c0-0.4,0-0.6,0-0.7c0-1.1-0.3-1.9-0.8-2.3c-0.7-0.6-1.7-0.9-3.1-0.9c-1.3,0-2.2,0.2-2.8,0.7c-0.6,0.4-1.1,1.2-1.4,2.4l-2.7-0.4
		c0.2-1.1,0.6-2.1,1.2-2.8c0.6-0.7,1.4-1.2,2.4-1.6c1-0.4,2.3-0.6,3.6-0.6c1.4,0,2.5,0.2,3.3,0.5c0.9,0.3,1.5,0.7,1.9,1.2
		c0.4,0.5,0.7,1.1,0.8,1.9c0.1,0.5,0.1,1.3,0.1,2.5v3.6c0,2.5,0.1,4.1,0.2,4.8c0.1,0.7,0.3,1.3,0.7,1.9h-2.8
		C242.6,151.1,242.4,150.5,242.4,149.7z M242.1,143.6c-1,0.4-2.5,0.7-4.5,1c-1.1,0.2-1.9,0.3-2.4,0.5c-0.5,0.2-0.8,0.5-1.1,0.9
		c-0.3,0.4-0.4,0.8-0.4,1.3c0,0.7,0.3,1.3,0.8,1.8c0.5,0.5,1.4,0.7,2.4,0.7c1,0,2-0.2,2.8-0.7c0.8-0.5,1.4-1.1,1.8-1.9
		c0.3-0.6,0.4-1.5,0.4-2.7V143.6z"/>
	<path fill="#262262" d="M249,151.7v-22.2h2.7v22.2H249z"/>
	<path fill="#262262" d="M265,151.7v-22.2h9.8c2,0,3.5,0.2,4.5,0.6c1,0.4,1.9,1.1,2.5,2.1c0.6,1,0.9,2.1,0.9,3.3
		c0,1.6-0.5,2.9-1.5,4c-1,1.1-2.6,1.8-4.7,2.1c0.8,0.4,1.4,0.7,1.8,1.1c0.9,0.8,1.7,1.8,2.4,3l3.9,6h-3.7l-2.9-4.6
		c-0.9-1.3-1.6-2.4-2.1-3.1c-0.6-0.7-1.1-1.2-1.5-1.5c-0.4-0.3-0.9-0.5-1.3-0.6c-0.3-0.1-0.9-0.1-1.6-0.1h-3.4v9.9H265z
		 M267.9,139.3h6.3c1.3,0,2.4-0.1,3.1-0.4c0.8-0.3,1.3-0.7,1.7-1.3c0.4-0.6,0.6-1.3,0.6-2c0-1-0.4-1.9-1.1-2.6c-0.8-0.7-2-1-3.6-1
		h-7V139.3z"/>
	<path fill="#262262" d="M298,146.5l2.8,0.3c-0.4,1.6-1.3,2.9-2.5,3.8c-1.2,0.9-2.7,1.4-4.6,1.4c-2.4,0-4.2-0.7-5.6-2.2
		c-1.4-1.4-2.1-3.5-2.1-6.1c0-2.7,0.7-4.8,2.1-6.3s3.2-2.2,5.4-2.2c2.1,0,3.9,0.7,5.3,2.2c1.4,1.5,2,3.5,2,6.2c0,0.2,0,0.4,0,0.7
		h-12c0.1,1.8,0.6,3.1,1.5,4.1c0.9,0.9,2,1.4,3.4,1.4c1,0,1.9-0.3,2.6-0.8C297,148.5,297.6,147.7,298,146.5z M289.1,142.1h9
		c-0.1-1.4-0.5-2.4-1-3c-0.9-1-2-1.6-3.4-1.6c-1.3,0-2.3,0.4-3.2,1.3C289.6,139.6,289.1,140.7,289.1,142.1z"/>
	<path fill="#262262" d="M303.1,146.9l2.7-0.4c0.2,1.1,0.6,1.9,1.3,2.5c0.7,0.6,1.7,0.9,2.9,0.9c1.3,0,2.2-0.3,2.8-0.8
		c0.6-0.5,0.9-1.1,0.9-1.8c0-0.6-0.3-1.1-0.8-1.5c-0.4-0.2-1.3-0.5-2.8-0.9c-2-0.5-3.4-0.9-4.2-1.3c-0.8-0.4-1.4-0.9-1.8-1.5
		c-0.4-0.7-0.6-1.4-0.6-2.2c0-0.7,0.2-1.4,0.5-2c0.3-0.6,0.8-1.1,1.3-1.5c0.4-0.3,1-0.6,1.7-0.8c0.7-0.2,1.5-0.3,2.4-0.3
		c1.3,0,2.4,0.2,3.3,0.5c1,0.4,1.7,0.9,2.1,1.5c0.5,0.6,0.8,1.5,0.9,2.5l-2.7,0.4c-0.1-0.8-0.5-1.5-1.1-1.9
		c-0.6-0.5-1.4-0.7-2.5-0.7c-1.3,0-2.1,0.2-2.7,0.6c-0.5,0.4-0.8,0.9-0.8,1.5c0,0.4,0.1,0.7,0.3,1c0.2,0.3,0.6,0.5,1,0.7
		c0.3,0.1,1.1,0.3,2.4,0.7c1.9,0.5,3.3,0.9,4,1.3c0.8,0.3,1.4,0.8,1.8,1.4c0.4,0.6,0.7,1.4,0.7,2.3c0,0.9-0.3,1.8-0.8,2.6
		c-0.5,0.8-1.3,1.4-2.3,1.9c-1,0.4-2.1,0.7-3.4,0.7c-2.1,0-3.7-0.4-4.8-1.3C304.1,149.9,303.4,148.6,303.1,146.9z"/>
	<path fill="#262262" d="M318.7,143.7c0-3,0.8-5.2,2.5-6.6c1.4-1.2,3.1-1.8,5.1-1.8c2.2,0,4,0.7,5.4,2.2c1.4,1.4,2.1,3.4,2.1,6
		c0,2.1-0.3,3.7-0.9,4.9c-0.6,1.2-1.5,2.1-2.7,2.8c-1.2,0.7-2.5,1-3.9,1c-2.3,0-4.1-0.7-5.5-2.2
		C319.4,148.4,318.7,146.4,318.7,143.7z M321.5,143.7c0,2.1,0.4,3.6,1.3,4.6c0.9,1,2,1.5,3.4,1.5c1.4,0,2.5-0.5,3.4-1.5
		s1.3-2.6,1.3-4.7c0-2-0.5-3.5-1.4-4.5c-0.9-1-2-1.5-3.4-1.5c-1.4,0-2.5,0.5-3.4,1.5C322,140.1,321.5,141.6,321.5,143.7z"/>
	<path fill="#262262" d="M347.5,151.7v-2.4c-1.3,1.8-3,2.7-5.1,2.7c-0.9,0-1.8-0.2-2.7-0.5s-1.4-0.8-1.8-1.4c-0.4-0.5-0.7-1.2-0.8-2
		c-0.1-0.5-0.2-1.4-0.2-2.5v-10h2.7v8.9c0,1.4,0.1,2.4,0.2,2.9c0.2,0.7,0.5,1.3,1.1,1.7c0.6,0.4,1.2,0.6,2.1,0.6s1.6-0.2,2.3-0.6
		c0.7-0.4,1.2-1,1.5-1.7s0.4-1.8,0.4-3.1v-8.6h2.7v16.1H347.5z"/>
	<path fill="#262262" d="M354.2,151.7v-16.1h2.5v2.4c0.6-1.1,1.2-1.9,1.7-2.3c0.5-0.4,1.1-0.5,1.7-0.5c0.9,0,1.9,0.3,2.8,0.9
		l-0.9,2.5c-0.7-0.4-1.3-0.6-2-0.6c-0.6,0-1.1,0.2-1.6,0.5c-0.5,0.4-0.8,0.9-1,1.5c-0.3,1-0.5,2-0.5,3.2v8.4H354.2z"/>
	<path fill="#262262" d="M375,145.8l2.7,0.3c-0.3,1.8-1,3.3-2.2,4.3c-1.2,1-2.7,1.6-4.4,1.6c-2.2,0-4-0.7-5.3-2.2
		c-1.3-1.4-2-3.5-2-6.2c0-1.7,0.3-3.3,0.9-4.6s1.5-2.3,2.6-2.9c1.2-0.7,2.5-1,3.8-1c1.7,0,3.2,0.4,4.3,1.3c1.1,0.9,1.8,2.1,2.1,3.8
		l-2.6,0.4c-0.3-1.1-0.7-1.9-1.3-2.4c-0.6-0.5-1.4-0.8-2.3-0.8c-1.4,0-2.5,0.5-3.3,1.5c-0.9,1-1.3,2.5-1.3,4.7
		c0,2.2,0.4,3.7,1.2,4.7c0.8,1,1.9,1.5,3.2,1.5c1.1,0,2-0.3,2.7-1C374.4,148.2,374.8,147.2,375,145.8z"/>
	<path fill="#262262" d="M391,146.5l2.8,0.3c-0.4,1.6-1.3,2.9-2.5,3.8s-2.7,1.4-4.6,1.4c-2.4,0-4.2-0.7-5.6-2.2
		c-1.4-1.4-2.1-3.5-2.1-6.1c0-2.7,0.7-4.8,2.1-6.3s3.2-2.2,5.4-2.2c2.1,0,3.9,0.7,5.3,2.2c1.4,1.5,2,3.5,2,6.2c0,0.2,0,0.4,0,0.7
		h-12c0.1,1.8,0.6,3.1,1.5,4.1c0.9,0.9,2,1.4,3.4,1.4c1,0,1.9-0.3,2.6-0.8S390.6,147.7,391,146.5z M382.1,142.1h9
		c-0.1-1.4-0.5-2.4-1-3c-0.9-1-2-1.6-3.4-1.6c-1.3,0-2.3,0.4-3.2,1.3C382.7,139.6,382.2,140.7,382.1,142.1z"/>
	<path fill="#262262" d="M396.2,146.9l2.7-0.4c0.2,1.1,0.6,1.9,1.3,2.5c0.7,0.6,1.7,0.9,2.9,0.9c1.3,0,2.2-0.3,2.8-0.8
		c0.6-0.5,0.9-1.1,0.9-1.8c0-0.6-0.3-1.1-0.8-1.5c-0.4-0.2-1.3-0.5-2.8-0.9c-2-0.5-3.4-0.9-4.2-1.3c-0.8-0.4-1.4-0.9-1.8-1.5
		c-0.4-0.7-0.6-1.4-0.6-2.2c0-0.7,0.2-1.4,0.5-2c0.3-0.6,0.8-1.1,1.3-1.5c0.4-0.3,1-0.6,1.7-0.8c0.7-0.2,1.5-0.3,2.4-0.3
		c1.3,0,2.4,0.2,3.3,0.5c1,0.4,1.7,0.9,2.1,1.5c0.5,0.6,0.8,1.5,0.9,2.5l-2.7,0.4c-0.1-0.8-0.5-1.5-1.1-1.9
		c-0.6-0.5-1.4-0.7-2.5-0.7c-1.3,0-2.1,0.2-2.7,0.6c-0.5,0.4-0.8,0.9-0.8,1.5c0,0.4,0.1,0.7,0.3,1c0.2,0.3,0.6,0.5,1,0.7
		c0.3,0.1,1.1,0.3,2.4,0.7c1.9,0.5,3.3,0.9,4,1.3c0.8,0.3,1.4,0.8,1.8,1.4s0.7,1.4,0.7,2.3c0,0.9-0.3,1.8-0.8,2.6
		c-0.5,0.8-1.3,1.4-2.3,1.9c-1,0.4-2.1,0.7-3.4,0.7c-2.1,0-3.7-0.4-4.8-1.3C397.2,149.9,396.5,148.6,396.2,146.9z"/>
	<path fill="#262262" d="M421.8,151.7v-22.2h9.8c2,0,3.5,0.2,4.5,0.6c1,0.4,1.9,1.1,2.5,2.1c0.6,1,0.9,2.1,0.9,3.3
		c0,1.6-0.5,2.9-1.5,4c-1,1.1-2.6,1.8-4.7,2.1c0.8,0.4,1.4,0.7,1.8,1.1c0.9,0.8,1.7,1.8,2.4,3l3.9,6h-3.7l-2.9-4.6
		c-0.9-1.3-1.6-2.4-2.1-3.1c-0.6-0.7-1.1-1.2-1.5-1.5c-0.4-0.3-0.9-0.5-1.3-0.6c-0.3-0.1-0.9-0.1-1.6-0.1h-3.4v9.9H421.8z
		 M424.7,139.3h6.3c1.3,0,2.4-0.1,3.1-0.4c0.8-0.3,1.3-0.7,1.7-1.3c0.4-0.6,0.6-1.3,0.6-2c0-1-0.4-1.9-1.1-2.6c-0.8-0.7-2-1-3.6-1
		h-7V139.3z"/>
	<path fill="#262262" d="M454.8,146.5l2.8,0.3c-0.4,1.6-1.3,2.9-2.5,3.8c-1.2,0.9-2.7,1.4-4.6,1.4c-2.4,0-4.2-0.7-5.6-2.2
		c-1.4-1.4-2.1-3.5-2.1-6.1c0-2.7,0.7-4.8,2.1-6.3s3.2-2.2,5.4-2.2c2.1,0,3.9,0.7,5.3,2.2c1.4,1.5,2,3.5,2,6.2c0,0.2,0,0.4,0,0.7
		h-12c0.1,1.8,0.6,3.1,1.5,4.1c0.9,0.9,2,1.4,3.4,1.4c1,0,1.9-0.3,2.6-0.8C453.8,148.5,454.4,147.7,454.8,146.5z M445.8,142.1h9
		c-0.1-1.4-0.5-2.4-1-3c-0.9-1-2-1.6-3.4-1.6c-1.3,0-2.3,0.4-3.2,1.3C446.4,139.6,445.9,140.7,445.8,142.1z"/>
	<path fill="#262262" d="M465.5,151.7l-6.1-16.1h2.9l3.5,9.6c0.4,1,0.7,2.1,1,3.2c0.2-0.8,0.6-1.9,1-3.1l3.6-9.8h2.8l-6.1,16.1
		H465.5z"/>
	<path fill="#262262" d="M487.5,146.5l2.8,0.3c-0.4,1.6-1.3,2.9-2.5,3.8s-2.7,1.4-4.6,1.4c-2.4,0-4.2-0.7-5.6-2.2
		c-1.4-1.4-2.1-3.5-2.1-6.1c0-2.7,0.7-4.8,2.1-6.3s3.2-2.2,5.4-2.2c2.1,0,3.9,0.7,5.3,2.2c1.4,1.5,2,3.5,2,6.2c0,0.2,0,0.4,0,0.7
		h-12c0.1,1.8,0.6,3.1,1.5,4.1c0.9,0.9,2,1.4,3.4,1.4c1,0,1.9-0.3,2.6-0.8S487.1,147.7,487.5,146.5z M478.6,142.1h9
		c-0.1-1.4-0.5-2.4-1-3c-0.9-1-2-1.6-3.4-1.6c-1.3,0-2.3,0.4-3.2,1.3C479.1,139.6,478.7,140.7,478.6,142.1z"/>
	<path fill="#262262" d="M493.8,151.7v-16.1h2.5v2.3c1.2-1.8,2.9-2.6,5.1-2.6c1,0,1.9,0.2,2.7,0.5c0.8,0.3,1.4,0.8,1.8,1.4
		c0.4,0.6,0.7,1.2,0.8,2c0.1,0.5,0.2,1.4,0.2,2.6v9.9h-2.7v-9.8c0-1.1-0.1-1.9-0.3-2.5c-0.2-0.5-0.6-1-1.1-1.3s-1.2-0.5-1.9-0.5
		c-1.2,0-2.2,0.4-3,1.1c-0.8,0.7-1.3,2.1-1.3,4.2v8.8H493.8z"/>
	<path fill="#262262" d="M521.5,151.7v-2.4c-1.3,1.8-3,2.7-5.1,2.7c-0.9,0-1.8-0.2-2.7-0.5c-0.8-0.4-1.4-0.8-1.8-1.4
		c-0.4-0.5-0.7-1.2-0.8-2c-0.1-0.5-0.2-1.4-0.2-2.5v-10h2.7v8.9c0,1.4,0.1,2.4,0.2,2.9c0.2,0.7,0.5,1.3,1.1,1.7
		c0.6,0.4,1.2,0.6,2.1,0.6s1.6-0.2,2.3-0.6c0.7-0.4,1.2-1,1.5-1.7c0.3-0.7,0.4-1.8,0.4-3.1v-8.6h2.7v16.1H521.5z"/>
	<path fill="#262262" d="M539.2,146.5l2.8,0.3c-0.4,1.6-1.3,2.9-2.5,3.8c-1.2,0.9-2.7,1.4-4.6,1.4c-2.4,0-4.2-0.7-5.6-2.2
		c-1.4-1.4-2.1-3.5-2.1-6.1c0-2.7,0.7-4.8,2.1-6.3s3.2-2.2,5.4-2.2c2.1,0,3.9,0.7,5.3,2.2c1.4,1.5,2,3.5,2,6.2c0,0.2,0,0.4,0,0.7
		h-12c0.1,1.8,0.6,3.1,1.5,4.1c0.9,0.9,2,1.4,3.4,1.4c1,0,1.9-0.3,2.6-0.8C538.3,148.5,538.8,147.7,539.2,146.5z M530.3,142.1h9
		c-0.1-1.4-0.5-2.4-1-3c-0.9-1-2-1.6-3.4-1.6c-1.3,0-2.3,0.4-3.2,1.3C530.9,139.6,530.4,140.7,530.3,142.1z"/>
</g>
</svg>
