<?xml version="1.0" encoding="utf-8"?>
<!-- Generator: Adobe Illustrator 21.1.0, SVG Export Plug-In . SVG Version: 6.00 Build 0)  -->
<svg version="1.1" id="Layer_1" xmlns="http://www.w3.org/2000/svg" xmlns:xlink="http://www.w3.org/1999/xlink" x="0px" y="0px"
	 viewBox="0 0 25 25" width="25px" height="25px" style="enable-background:new 0 0 25 25;" xml:space="preserve">
<style type="text/css">
	.st0{fill:#1478A6;}
</style>
<g>
	<rect x="6.3" y="9.4" class="st0" width="5.6" height="3.2"/>
	<rect x="6.3" y="14.2" class="st0" width="5.6" height="3.2"/>
	<rect x="13.5" y="14.2" class="st0" width="5.6" height="3.2"/>
	<path class="st0" d="M12.6,0.8C6.1,0.8,0.9,6.1,0.9,12.6c0,6.5,5.3,11.8,11.8,11.8c6.5,0,11.8-5.3,11.8-11.8
		C24.4,6.1,19.1,0.8,12.6,0.8z M20.7,17.4c0,0.9-0.7,1.6-1.6,1.6H6.3c0,0,0,0,0,0c-0.9,0-1.6-0.7-1.6-1.6V7.8c0-0.9,0.7-1.6,1.6-1.6
		h12.8c0.5,0,1,0.2,1.4,0.7c0.2,0.3,0.3,0.6,0.3,0.9V17.4z"/>
	<rect x="13.5" y="9.4" class="st0" width="5.6" height="3.2"/>
</g>
</svg>
